<?xml version="1.0" encoding="UTF-8" standalone="no"?>
<!-- Created with Inkscape (http://www.inkscape.org/) -->

<svg
   width="36mm"
   height="36mm"
   viewBox="0 0 35.999999 36"
   version="1.1"
   id="svg1"
   inkscape:version="1.4 (1:1.4+202410161351+e7c3feb100)"
   sodipodi:docname="logo_round_pg.svg"
   xmlns:inkscape="http://www.inkscape.org/namespaces/inkscape"
   xmlns:sodipodi="http://sodipodi.sourceforge.net/DTD/sodipodi-0.dtd"
   xmlns="http://www.w3.org/2000/svg"
   xmlns:svg="http://www.w3.org/2000/svg">
  <sodipodi:namedview
     id="namedview1"
     pagecolor="#505050"
     bordercolor="#eeeeee"
     borderopacity="1"
     inkscape:showpageshadow="0"
     inkscape:pageopacity="0"
     inkscape:pagecheckerboard="0"
     inkscape:deskcolor="#505050"
     inkscape:document-units="mm"
     inkscape:zoom="0.71268238"
     inkscape:cx="145.22598"
     inkscape:cy="120.67087"
     inkscape:window-width="1920"
     inkscape:window-height="1002"
     inkscape:window-x="0"
     inkscape:window-y="0"
     inkscape:window-maximized="1"
     inkscape:current-layer="layer1" />
  <defs
     id="defs1" />
  <g
     inkscape:label="Layer 1"
     inkscape:groupmode="layer"
     id="layer1"
     transform="translate(-65.616661,-86.254091)">
    <g
       id="g214"
       transform="translate(134.87392,-649.18994)">
      <circle
         style="fill:#1a1a1a;fill-opacity:1;stroke:none;stroke-width:2.11667;stroke-linecap:round;stroke-linejoin:round;stroke-dasharray:none"
         id="circle852"
         cx="-51.257259"
         cy="753.44403"
         r="18" />
      <path
         id="path167"
         style="fill:#c54b8c;stroke-width:0.773585;stroke-linecap:round;stroke-linejoin:round"
         d="m -46.837968,738.72028 a 0.39687499,0.39687499 0 0 0 -0.204639,0.0114 0.39687499,0.39687499 0 0 0 -0.252181,0.50178 c 1.23747,3.72218 1.64002,6.99662 1.19941,9.78907 -0.44062,2.79245 -1.71113,5.10883 -3.8809,6.9727 a 0.39687499,0.39687499 0 0 0 -0.04289,0.56069 0.39687499,0.39687499 0 0 0 0.560172,0.0429 c 2.30167,-1.97718 3.681544,-4.49131 4.148584,-7.45123 0.46704,-2.95992 0.03264,-6.35847 -1.232483,-10.16372 a 0.39687499,0.39687499 0 0 0 -0.295072,-0.26355 z m -4.951119,13.21935 c -4.39044,0.003 -7.960253,3.35373 -8.004163,7.51324 0.14668,0.13106 0.300977,0.19617 0.478007,0.2005 0.39362,0.01 0.603553,-0.0581 0.734323,-0.13487 0.13077,-0.0768 0.204362,-0.17271 0.295072,-0.31213 0.0907,-0.13942 0.181958,-0.33635 0.413928,-0.49609 0.23197,-0.1597 0.567744,-0.19005 0.917774,-0.0941 0.29293,0.0805 0.477765,0.30355 0.609265,0.53743 0.1315,0.23387 0.225872,0.5058 0.312642,0.81236 0.17355,0.6131 0.308894,1.36395 0.478524,2.10168 0.16962,0.73774 0.375077,1.45971 0.652157,1.98024 0.27709,0.52052 0.580844,0.80578 0.994254,0.85938 0.47258,0.0612 0.704389,-0.0569 0.929659,-0.28888 0.22527,-0.23202 0.410052,-0.61732 0.576192,-1.04696 0.16614,-0.42963 0.312994,-0.89361 0.548804,-1.29294 0.23581,-0.39934 0.642087,-0.76671 1.185457,-0.76171 0.468,0.004 0.846921,0.18059 1.093991,0.42788 0.24707,0.2473 0.375533,0.53084 0.496093,0.76946 0.12057,0.23862 0.229386,0.43116 0.363286,0.55087 0.1339,0.11968 0.293158,0.20102 0.642338,0.20102 0.29546,0 0.512978,-0.12966 0.752408,-0.39067 0.23942,-0.26102 0.463763,-0.6479 0.683163,-1.05679 0.2194,-0.40888 0.432516,-0.83744 0.703316,-1.19321 0.27079,-0.35575 0.647736,-0.67386 1.142566,-0.67386 0.36845,0 0.691134,0.13048 0.939994,0.3204 0.0443,-0.31267 0.0679,-0.62763 0.0708,-0.9431 -2e-5,-1.95334 -0.79475,-3.82411 -2.20555,-5.22965 -0.21797,-0.21715 -0.529221,-0.16021 -0.691431,0.10128 -0.65577,1.05709 -1.473658,2.01675 -2.445328,2.8696 0.23029,0.0816 0.480038,0.14343 0.750858,0.18603 a 0.39687499,0.39687499 0 0 1 0.330212,0.45527 0.39687499,0.39687499 0 0 1 -0.453202,0.3297 c -1.64089,-0.25813 -2.806999,-1.26984 -3.328479,-2.88045 a 0.39687499,0.39687499 0 0 1 0.256315,-0.50023 0.39687499,0.39687499 0 0 1 0.499711,0.2558 c 0.0907,0.28022 0.198035,0.53301 0.321945,0.76068 0.94809,-0.78681 1.716,-1.66433 2.31407,-2.64428 0.15507,-0.25409 0.05121,-0.57433 -0.224792,-0.68575 -0.98931,-0.39936 -2.055106,-0.60651 -3.134176,-0.6072 z m -5.578988,7.4042 c -0.0334,8.9e-4 -0.04181,0.0111 -0.05271,0.0186 -0.0217,0.015 -0.0898,0.10901 -0.199471,0.27751 -0.10965,0.16851 -0.276692,0.39669 -0.558622,0.56224 -0.28191,0.1655 -0.658902,0.25879 -1.156002,0.24649 -0.14114,-0.004 -0.274005,-0.0292 -0.399975,-0.0698 0.45626,3.83294 3.874588,6.73194 7.945768,6.73861 3.64251,-0.006 6.822116,-2.33968 7.738546,-5.67976 -0.0667,-0.11153 -0.141609,-0.21234 -0.223759,-0.28835 -0.14221,-0.13163 -0.288461,-0.20309 -0.515731,-0.20309 -0.16028,0 -0.309487,0.0957 -0.511597,0.36122 -0.2021,0.26552 -0.410023,0.66675 -0.635103,1.08623 -0.22508,0.41948 -0.467951,0.85828 -0.798401,1.21853 -0.33044,0.36025 -0.782762,0.64648 -1.336352,0.64648 -0.49988,10e-6 -0.899255,-0.1607 -1.171505,-0.40411 -0.27225,-0.24341 -0.418469,-0.53672 -0.543119,-0.78342 -0.12464,-0.24669 -0.230183,-0.44711 -0.349333,-0.56637 -0.11915,-0.11926 -0.238322,-0.19027 -0.539502,-0.19327 -0.22581,-0.002 -0.328147,0.0886 -0.494027,0.36949 -0.16588,0.28092 -0.315629,0.71966 -0.491959,1.17563 -0.17632,0.45598 -0.379948,0.93691 -0.746208,1.31414 -0.36625,0.37724 -0.92726,0.61108 -1.60352,0.52348 -0.73545,-0.0953 -1.250984,-0.63336 -1.591634,-1.27331 -0.34065,-0.63994 -0.54997,-1.41423 -0.72502,-2.17558 -0.17505,-0.76135 -0.312575,-1.51132 -0.468705,-2.06292 -0.0781,-0.2758 -0.163866,-0.50158 -0.241846,-0.64027 -0.078,-0.13866 -0.133724,-0.1622 -0.127124,-0.1602 -0.11137,-0.0306 -0.169689,-0.0391 -0.203089,-0.0382 z" />
    </g>
  </g>
</svg>
