<?xml version="1.0" encoding="UTF-8" standalone="no"?>
<svg
   width="134"
   height="134"
   viewBox="0 0 134 134"
   fill="none"
   version="1.1"
   id="svg2"
   sodipodi:docname="CUSD.svg"
   inkscape:version="1.4 (1:1.4+202410161351+e7c3feb100)"
   xmlns:inkscape="http://www.inkscape.org/namespaces/inkscape"
   xmlns:sodipodi="http://sodipodi.sourceforge.net/DTD/sodipodi-0.dtd"
   xmlns="http://www.w3.org/2000/svg"
   xmlns:svg="http://www.w3.org/2000/svg">
  <sodipodi:namedview
     id="namedview2"
     pagecolor="#505050"
     bordercolor="#eeeeee"
     borderopacity="1"
     inkscape:showpageshadow="0"
     inkscape:pageopacity="0"
     inkscape:pagecheckerboard="0"
     inkscape:deskcolor="#505050"
     inkscape:zoom="3.6994541"
     inkscape:cx="4.8655827"
     inkscape:cy="32.302063"
     inkscape:window-width="3440"
     inkscape:window-height="1353"
     inkscape:window-x="0"
     inkscape:window-y="0"
     inkscape:window-maximized="1"
     inkscape:current-layer="svg2" />
  <path
     id="path1"
     d="m 133.80273,71.88086 c -2.41159,2.76821 -5.17667,4.77273 -8.18359,4.80273 -10.06611,0.10044 -9.41986,-14.20898 -20.27344,-14.20898 -10.85358,0 -10.32932,18.98791 -21.40625,19.29492 C 72.86252,82.07654 72.35273,66.62123 64.36523,67 56.37772,67.37877 57.23407,77.05428 48.52734,77.23438 39.820619,77.41447 34.814113,52.544067 19.742188,51.744141 11.245305,51.293178 4.382779,59.38105 0.011719,66.52539 0.01061,66.68433 0,66.8408 0,67 c 0,37.003 29.9968,67 67,67 35.35941,0 64.29964,-27.39782 66.80273,-62.11914 z"
     style="fill:#ff9ced;fill-opacity:1" />
  <path
     id="path14"
     d="M 67,0 C 30.156,0 0.268296,29.741842 0.011719,66.52539 4.382779,59.38105 11.245305,51.293178 19.742188,51.744141 34.814113,52.544067 39.820619,77.41447 48.52734,77.23438 57.23407,77.05428 56.37772,67.37877 64.36523,67 c 7.9875,-0.37877 8.49729,15.07654 19.57422,14.76953 11.07693,-0.30701 10.55267,-19.29492 21.40625,-19.29492 10.85358,0 10.20733,14.30942 20.27344,14.20898 3.00692,-0.03 5.772,-2.03452 8.18359,-4.80273 C 133.91908,70.26693 134,68.64359 134,67 134,29.9968 104.003,0 67,0 Z"
     style="fill:#c54b8c;fill-opacity:1" />
  <path
     d="m 70.64935,16.808398 h -6.27472 c -1.73198,0 -3.13586,1.404168 -3.13586,3.136605 v 9.718757 c -12.43854,1.768245 -20.47819,10.045377 -20.47819,20.663988 0,13.744582 8.30784,19.078382 25.84646,21.438132 11.89768,1.94925 15.28523,4.51127 15.28523,11.2819 0,6.76913 -5.74731,11.28338 -13.8484,11.28338 -10.95228,0 -14.55709,-4.79292 -15.88604,-10.99721 C 51.84319,81.86416 50.58465,80.7899 49.0819,80.7899 h -7.15718 c -1.80241,0 -3.210769,1.62412 -2.902123,3.39955 1.823383,10.44137 8.529583,18.10347 22.216173,19.95981 v 9.90499 c 0,1.73349 1.40388,3.13735 3.13586,3.13735 h 6.27472 c 1.73198,0 3.13735,-1.40386 3.13735,-3.13735 v -9.90948 c 12.95545,-2.05861 21.23332,-11.07813 21.23332,-22.22518 0,-14.66796 -8.92363,-19.59124 -26.1566,-21.9495 -12.71873,-1.84735 -15.17887,-4.821393 -15.17887,-10.77143 0,-5.639896 4.3075,-9.641896 12.61535,-9.641896 7.51527,0 11.83774,2.623002 13.62367,8.671174 0.39854,1.349931 1.60613,2.304173 3.013,2.304173 h 6.59982 c 1.83987,0 3.27221,-1.691235 2.87965,-3.489445 C 90.32747,37.484523 83.88497,31.749037 73.7867,29.93974 v -9.994737 c 0,-1.732437 -1.40537,-3.136605 -3.13735,-3.136605 z"
     id="path7"
     style="fill:#1a1a1a;fill-opacity:1;stroke-width:1.49825" />
  <defs
     id="defs2" />
</svg>
