<?xml version="1.0" encoding="UTF-8" standalone="no"?>
<!-- Created with Inkscape (http://www.inkscape.org/) -->

<svg
   width="18.014mm"
   height="30.405001mm"
   viewBox="0 0 18.014 30.405001"
   version="1.1"
   id="svg1"
   inkscape:version="1.3.2 (1:1.3.2+202311252150+091e20ef0f)"
   sodipodi:docname="logo_wt.svg"
   xmlns:inkscape="http://www.inkscape.org/namespaces/inkscape"
   xmlns:sodipodi="http://sodipodi.sourceforge.net/DTD/sodipodi-0.dtd"
   xmlns="http://www.w3.org/2000/svg"
   xmlns:svg="http://www.w3.org/2000/svg">
  <sodipodi:namedview
     id="namedview1"
     pagecolor="#505050"
     bordercolor="#eeeeee"
     borderopacity="1"
     inkscape:showpageshadow="0"
     inkscape:pageopacity="0"
     inkscape:pagecheckerboard="0"
     inkscape:deskcolor="#505050"
     inkscape:document-units="mm"
     inkscape:zoom="2.8507295"
     inkscape:cx="-41.21752"
     inkscape:cy="11.400591"
     inkscape:window-width="2560"
     inkscape:window-height="1366"
     inkscape:window-x="2560"
     inkscape:window-y="0"
     inkscape:window-maximized="1"
     inkscape:current-layer="layer1" />
  <defs
     id="defs1" />
  <g
     inkscape:label="Layer 1"
     inkscape:groupmode="layer"
     id="layer1"
     transform="translate(-47.034841,-117.56789)">
    <path
       id="path87"
       style="fill:#ffffff;stroke-width:0.773585;stroke-linecap:round;stroke-linejoin:round"
       d="m 60.989599,118.57594 a 0.39687499,0.39687499 0 0 0 -0.204122,0.0114 0.39687499,0.39687499 0 0 0 -0.252181,0.50178 c 1.23747,3.72218 1.64002,6.99661 1.19941,9.78906 -0.44062,2.79245 -1.71113,5.10884 -3.8809,6.97271 a 0.39687499,0.39687499 0 0 0 -0.04289,0.56068 0.39687499,0.39687499 0 0 0 0.560172,0.0429 c 2.30167,-1.97718 3.681544,-4.49131 4.148584,-7.45123 0.46704,-2.95992 0.03264,-6.35847 -1.232483,-10.16372 A 0.39687499,0.39687499 0 0 0 60.9896,118.57597 Z m -4.950602,13.21935 c -4.39044,0.003 -7.960253,3.35373 -8.004163,7.51324 0.14668,0.13106 0.300977,0.19617 0.478007,0.2005 0.39362,0.01 0.603553,-0.0581 0.734323,-0.13488 0.13077,-0.0768 0.204362,-0.1727 0.295072,-0.31212 0.0907,-0.13942 0.181958,-0.33636 0.413928,-0.4961 0.23197,-0.1597 0.567744,-0.19005 0.917774,-0.0941 0.29293,0.0805 0.477765,0.30356 0.609265,0.53744 0.1315,0.23387 0.225872,0.50579 0.312642,0.81235 0.17355,0.6131 0.308894,1.36395 0.478524,2.10168 0.16962,0.73774 0.375077,1.45971 0.652157,1.98024 0.27709,0.52052 0.580844,0.80578 0.994254,0.85938 0.47258,0.0612 0.704389,-0.0569 0.929659,-0.28887 0.22527,-0.23202 0.410052,-0.61732 0.576192,-1.04696 0.16614,-0.42963 0.312994,-0.89362 0.548804,-1.29295 0.23581,-0.39934 0.642087,-0.76671 1.185457,-0.76171 0.468,0.004 0.846921,0.18059 1.093991,0.42788 0.24707,0.2473 0.375533,0.53084 0.496093,0.76946 0.12057,0.23862 0.229386,0.43117 0.363286,0.55088 0.1339,0.11968 0.293158,0.20102 0.642338,0.20102 0.29546,0 0.512978,-0.12967 0.752408,-0.39068 0.23942,-0.26102 0.463763,-0.64789 0.683163,-1.05678 0.2194,-0.40888 0.432516,-0.83744 0.703316,-1.19321 0.27079,-0.35575 0.647736,-0.67386 1.142566,-0.67386 0.36845,0 0.691134,0.13047 0.939994,0.32039 0.0443,-0.31267 0.0679,-0.62762 0.0708,-0.94309 -2e-5,-1.95334 -0.79475,-3.82412 -2.20555,-5.22966 -0.21797,-0.21715 -0.529221,-0.1602 -0.691431,0.10129 -0.65577,1.05709 -1.473658,2.01674 -2.445328,2.86959 0.23029,0.0816 0.480038,0.14344 0.750858,0.18604 a 0.39687499,0.39687499 0 0 1 0.330212,0.45527 0.39687499,0.39687499 0 0 1 -0.453202,0.32969 c -1.64089,-0.25813 -2.806998,-1.26983 -3.328479,-2.88044 a 0.39687499,0.39687499 0 0 1 0.256315,-0.50023 0.39687499,0.39687499 0 0 1 0.499711,0.2558 c 0.0907,0.28022 0.198035,0.53301 0.321945,0.76068 0.94809,-0.78681 1.716,-1.66434 2.31407,-2.64429 0.15507,-0.25409 0.05121,-0.57432 -0.224792,-0.68574 -0.98931,-0.39936 -2.055106,-0.60651 -3.134176,-0.6072 z m -5.578988,7.4042 c -0.0334,8.9e-4 -0.04181,0.0111 -0.05271,0.0186 -0.0217,0.015 -0.0898,0.109 -0.199471,0.2775 -0.10965,0.16851 -0.276692,0.39669 -0.558622,0.56224 -0.28191,0.1655 -0.658902,0.2588 -1.156002,0.2465 -0.14114,-0.004 -0.274005,-0.0292 -0.399975,-0.0698 0.07129,0.59889 0.215082,1.175 0.422196,1.72082 0.04142,0.10916 0.08534,0.21682 0.131775,0.3235 1.207143,2.77399 4.083789,4.68886 7.391797,4.69428 3.64251,-0.006 6.822116,-2.33967 7.738546,-5.67975 -0.0667,-0.11153 -0.141609,-0.21235 -0.223759,-0.28836 -0.14221,-0.13163 -0.288461,-0.20309 -0.515731,-0.20309 -0.16028,0 -0.309487,0.0957 -0.511597,0.36122 -0.2021,0.26552 -0.410023,0.66676 -0.635103,1.08624 -0.22508,0.41948 -0.467951,0.85828 -0.798401,1.21853 -0.33044,0.36025 -0.782762,0.64647 -1.336352,0.64647 -0.49988,1e-5 -0.899255,-0.1607 -1.171505,-0.40411 -0.27225,-0.24341 -0.418469,-0.53671 -0.543119,-0.78341 -0.12464,-0.24669 -0.230183,-0.44711 -0.349333,-0.56637 -0.11915,-0.11926 -0.238322,-0.19027 -0.539502,-0.19327 -0.22581,-0.002 -0.328147,0.0886 -0.494027,0.36948 -0.16588,0.28092 -0.315629,0.71967 -0.491959,1.17564 -0.17632,0.45598 -0.379948,0.9369 -0.746208,1.31413 -0.36625,0.37724 -0.92726,0.61108 -1.60352,0.52348 -0.73545,-0.0953 -1.250984,-0.63335 -1.591634,-1.2733 -0.34065,-0.63994 -0.54997,-1.41423 -0.72502,-2.17558 -0.17505,-0.76135 -0.312575,-1.51132 -0.468705,-2.06292 -0.0781,-0.2758 -0.163866,-0.50158 -0.241846,-0.64027 -0.078,-0.13866 -0.133724,-0.1622 -0.127124,-0.1602 -0.11137,-0.0306 -0.169689,-0.0391 -0.203089,-0.0382 z" />
  </g>
</svg>
