<?xml version="1.0" encoding="UTF-8" standalone="no"?>
<svg
   width="300.00507mm"
   height="300.06723mm"
   viewBox="0 0 300.00507 300.06723"
   version="1.1"
   id="svg1"
   sodipodi:docname="bg.svg"
   inkscape:version="1.4 (1:1.4+202410161351+e7c3feb100)"
   xmlns:inkscape="http://www.inkscape.org/namespaces/inkscape"
   xmlns:sodipodi="http://sodipodi.sourceforge.net/DTD/sodipodi-0.dtd"
   xmlns:xlink="http://www.w3.org/1999/xlink"
   xmlns="http://www.w3.org/2000/svg"
   xmlns:svg="http://www.w3.org/2000/svg">
  <defs
     id="defs60">
    <linearGradient
       id="linearGradient577"
       inkscape:collect="always">
      <stop
         style="stop-color:#c54b8c;stop-opacity:1"
         offset="0"
         id="stop577" />
      <stop
         style="stop-color:#b57edc;stop-opacity:1"
         offset="1"
         id="stop578" />
    </linearGradient>
    <linearGradient
       id="linearGradient575"
       inkscape:collect="always">
      <stop
         style="stop-color:#c54b8c;stop-opacity:1"
         offset="0"
         id="stop575" />
      <stop
         style="stop-color:#9dfff9;stop-opacity:1"
         offset="1"
         id="stop576" />
    </linearGradient>
    <linearGradient
       id="linearGradient573"
       inkscape:collect="always">
      <stop
         style="stop-color:#c54b8c;stop-opacity:1"
         offset="0"
         id="stop573" />
      <stop
         style="stop-color:#b57edc;stop-opacity:1"
         offset="1"
         id="stop574" />
    </linearGradient>
    <linearGradient
       id="linearGradient571"
       inkscape:collect="always">
      <stop
         style="stop-color:#9dfff9;stop-opacity:1;"
         offset="0"
         id="stop571" />
      <stop
         style="stop-color:#c54b8c;stop-opacity:1"
         offset="1"
         id="stop572" />
    </linearGradient>
    <filter
       style="color-interpolation-filters:sRGB"
       inkscape:label="Blur"
       id="filter61"
       x="-0.51938146"
       y="-0.53774035"
       width="2.0387628"
       height="2.0754807">
      <feGaussianBlur
         stdDeviation="15 15.365"
         result="blur"
         id="feGaussianBlur61" />
    </filter>
    <linearGradient
       inkscape:collect="always"
       xlink:href="#linearGradient571"
       id="linearGradient572"
       x1="475.27982"
       y1="-59.218765"
       x2="471.70877"
       y2="-9.6613436"
       gradientUnits="userSpaceOnUse" />
    <linearGradient
       inkscape:collect="always"
       xlink:href="#linearGradient573"
       id="linearGradient574"
       x1="54.559658"
       y1="-579.53284"
       x2="55.342564"
       y2="-652.93744"
       gradientUnits="userSpaceOnUse"
       gradientTransform="translate(-10.253905,2.8993939)" />
    <linearGradient
       inkscape:collect="always"
       xlink:href="#linearGradient575"
       id="linearGradient576"
       x1="792.84222"
       y1="-64.864861"
       x2="791.90137"
       y2="-19.147625"
       gradientUnits="userSpaceOnUse" />
    <linearGradient
       inkscape:collect="always"
       xlink:href="#linearGradient577"
       id="linearGradient578"
       x1="552.01166"
       y1="363.97552"
       x2="553.50336"
       y2="293.26443"
       gradientUnits="userSpaceOnUse"
       gradientTransform="translate(-28.727551,-34.544439)" />
    <linearGradient
       inkscape:collect="always"
       xlink:href="#linearGradient571"
       id="linearGradient711"
       gradientUnits="userSpaceOnUse"
       x1="475.27982"
       y1="-59.218765"
       x2="471.70877"
       y2="-9.6613436"
       gradientTransform="translate(212.00158,212.00242)" />
    <filter
       style="color-interpolation-filters:sRGB"
       inkscape:label="Blur"
       id="filter1011"
       x="-0.75060837"
       y="-0.51718749"
       width="2.5012167"
       height="2.034375">
      <feGaussianBlur
         stdDeviation="20 20"
         result="blur"
         id="feGaussianBlur1011" />
    </filter>
    <filter
       style="color-interpolation-filters:sRGB"
       inkscape:label="Blur"
       id="filter1012"
       x="-0.90955703"
       y="-0.8684847"
       width="2.8191141"
       height="2.7369694">
      <feGaussianBlur
         stdDeviation="20 20"
         result="blur"
         id="feGaussianBlur1012" />
    </filter>
    <filter
       style="color-interpolation-filters:sRGB"
       inkscape:label="Blur"
       id="filter1013"
       x="-0.75060837"
       y="-0.51718749"
       width="2.5012167"
       height="2.034375">
      <feGaussianBlur
         stdDeviation="20 20"
         result="blur"
         id="feGaussianBlur1013" />
    </filter>
    <filter
       style="color-interpolation-filters:sRGB"
       inkscape:label="Blur"
       id="filter1014"
       x="-0.90955703"
       y="-0.8684847"
       width="2.8191141"
       height="2.7369694">
      <feGaussianBlur
         stdDeviation="20 20"
         result="blur"
         id="feGaussianBlur1014" />
    </filter>
    <filter
       style="color-interpolation-filters:sRGB"
       inkscape:label="Blur"
       id="filter1015"
       x="-0.90955703"
       y="-0.8684847"
       width="2.8191141"
       height="2.7369694">
      <feGaussianBlur
         stdDeviation="20 20"
         result="blur"
         id="feGaussianBlur1015" />
    </filter>
    <filter
       style="color-interpolation-filters:sRGB"
       inkscape:label="Blur"
       id="filter1016"
       x="-0.9488011"
       y="-0.65374715"
       width="2.8976022"
       height="2.3074943">
      <feGaussianBlur
         stdDeviation="20 20"
         result="blur"
         id="feGaussianBlur1016" />
    </filter>
    <filter
       style="color-interpolation-filters:sRGB"
       inkscape:label="Blur"
       id="filter1017"
       x="-0.90955703"
       y="-0.8684847"
       width="2.8191141"
       height="2.7369694">
      <feGaussianBlur
         stdDeviation="20 20"
         result="blur"
         id="feGaussianBlur1017" />
    </filter>
    <filter
       style="color-interpolation-filters:sRGB"
       inkscape:label="Blur"
       id="filter1018"
       x="-0.9488011"
       y="-0.65374715"
       width="2.8976022"
       height="2.3074943">
      <feGaussianBlur
         stdDeviation="20 20"
         result="blur"
         id="feGaussianBlur1018" />
    </filter>
    <filter
       style="color-interpolation-filters:sRGB"
       inkscape:label="Blur"
       id="filter1019"
       x="-0.75060837"
       y="-0.51718749"
       width="2.5012167"
       height="2.034375">
      <feGaussianBlur
         stdDeviation="20 20"
         result="blur"
         id="feGaussianBlur1019" />
    </filter>
    <filter
       style="color-interpolation-filters:sRGB"
       inkscape:label="Blur"
       id="filter1020"
       x="-0.90955703"
       y="-0.8684847"
       width="2.8191141"
       height="2.7369694">
      <feGaussianBlur
         stdDeviation="20 20"
         result="blur"
         id="feGaussianBlur1020" />
    </filter>
    <filter
       style="color-interpolation-filters:sRGB"
       inkscape:label="Blur"
       id="filter1021"
       x="-0.75060838"
       y="-0.51718748"
       width="2.5012167"
       height="2.034375">
      <feGaussianBlur
         stdDeviation="20 20"
         result="blur"
         id="feGaussianBlur1021" />
    </filter>
    <linearGradient
       inkscape:collect="always"
       xlink:href="#linearGradient575"
       id="linearGradient1081"
       gradientUnits="userSpaceOnUse"
       x1="792.84222"
       y1="-64.864861"
       x2="791.90137"
       y2="-19.147625" />
  </defs>
  <sodipodi:namedview
     id="namedview60"
     pagecolor="#505050"
     bordercolor="#eeeeee"
     borderopacity="1"
     inkscape:showpageshadow="0"
     inkscape:pageopacity="0"
     inkscape:pagecheckerboard="0"
     inkscape:deskcolor="#505050"
     inkscape:document-units="mm"
     inkscape:zoom="0.71763604"
     inkscape:cx="20.90196"
     inkscape:cy="519.06535"
     inkscape:window-width="3440"
     inkscape:window-height="1353"
     inkscape:window-x="0"
     inkscape:window-y="0"
     inkscape:window-maximized="1"
     inkscape:current-layer="svg1" />
  <rect
     style="fill:#c54b8c;fill-opacity:1;stroke:none;stroke-width:1;stroke-linejoin:round"
     id="rect61"
     width="30"
     height="30"
     x="699.14325"
     y="-30.888489" />
  <rect
     style="fill:#b57edc;fill-opacity:1;stroke:none;stroke-width:1;stroke-linejoin:round"
     id="rect62"
     width="30"
     height="30"
     x="729.14331"
     y="-30.888489" />
  <rect
     style="fill:#9dfff9;fill-opacity:1;stroke:none;stroke-width:1;stroke-linejoin:round"
     id="rect63"
     width="30"
     height="30"
     x="699.14325"
     y="-0.88848877" />
  <rect
     style="fill:#ff9ced;fill-opacity:1;stroke:none;stroke-width:1;stroke-linejoin:round"
     id="rect64"
     width="30"
     height="30"
     x="729.14331"
     y="-0.88848877" />
  <rect
     style="fill:#010101;fill-opacity:1;stroke:none;stroke-width:1.00084;stroke-linejoin:round"
     id="rect65"
     width="300.00507"
     height="300.06723"
     x="0"
     y="0" />
  <g
     id="g125"
     transform="translate(0.0011741,0.00112944)">
    <g
       id="g124"
       style="opacity:0.166247" />
  </g>
  <ellipse
     style="fill:url(#linearGradient574);fill-opacity:1;stroke:none;stroke-width:0.85865;stroke-linejoin:round;filter:url(#filter1016)"
     id="ellipse306"
     cx="45.088657"
     cy="-613.3266"
     rx="25.29508"
     ry="36.711441"
     transform="rotate(123.95189,-70.213693,-229.74627)" />
  <ellipse
     style="fill:url(#linearGradient578);fill-opacity:1;stroke:none;stroke-width:0.85865;stroke-linejoin:round;filter:url(#filter1018)"
     id="ellipse307"
     cx="524.77582"
     cy="295.43146"
     rx="25.29508"
     ry="36.711441"
     transform="rotate(18.95189,748.12928,-1048.602)" />
  <rect
     style="fill:#010101;fill-opacity:1;stroke:none;stroke-width:1.00084;stroke-linejoin:round"
     id="rect578"
     width="300.00507"
     height="300.06723"
     x="0"
     y="-299.81607" />
  <ellipse
     style="fill:#c54b8c;fill-opacity:1;stroke:none;stroke-width:0.76087;stroke-linejoin:round;filter:url(#filter1017)"
     id="ellipse305"
     cx="260.25116"
     cy="20.251129"
     rx="26.386471"
     ry="27.634338" />
  <ellipse
     style="fill:url(#linearGradient572);fill-opacity:1;stroke:none;stroke-width:1.08537;stroke-linejoin:round;filter:url(#filter1019)"
     id="path305"
     cx="473.98941"
     cy="-35.488205"
     rx="31.974064"
     ry="46.404835"
     transform="rotate(45,211.90802,-512.04476)" />
  <ellipse
     style="fill:#c54b8c;fill-opacity:1;stroke:none;stroke-width:0.76087;stroke-linejoin:round;filter:url(#filter1012)"
     id="ellipse710"
     cx="260.25055"
     cy="320.06723"
     rx="26.386471"
     ry="27.634338" />
  <ellipse
     style="fill:url(#linearGradient711);fill-opacity:1;stroke:none;stroke-width:1.08537;stroke-linejoin:round;filter:url(#filter1011)"
     id="ellipse711"
     cx="685.99097"
     cy="176.51421"
     rx="31.974064"
     ry="46.404835"
     transform="rotate(45,211.90802,-512.04476)" />
  <ellipse
     style="fill:#b67ad5;fill-opacity:1;stroke:none;stroke-width:0.76087;stroke-linejoin:round;filter:url(#filter1020)"
     id="ellipse308"
     cx="10.25116"
     cy="130.25113"
     rx="26.386471"
     ry="27.634338" />
  <ellipse
     style="fill:url(#linearGradient576);fill-opacity:1;stroke:none;stroke-width:1.08537;stroke-linejoin:round;filter:url(#filter1013)"
     id="ellipse310"
     transform="rotate(45,211.90802,-512.04476)"
     ry="46.404835"
     rx="31.974064"
     cy="-42.559273"
     cx="792.18744" />
  <ellipse
     style="fill:#b67ad5;fill-opacity:1;stroke:none;stroke-width:0.76087;stroke-linejoin:round;filter:url(#filter1015)"
     id="ellipse846"
     cx="310.25562"
     cy="129.99997"
     rx="26.386471"
     ry="27.634338" />
  <ellipse
     style="fill:#9dfff9;fill-opacity:1;stroke:none;stroke-width:0.76087;stroke-linejoin:round;filter:url(#filter1014)"
     id="ellipse851"
     cx="176.3896"
     cy="220.12619"
     rx="26.386471"
     ry="27.634338" />
  <ellipse
     style="fill:url(#linearGradient1081);fill-opacity:1;stroke:none;stroke-width:1.08537;stroke-linejoin:round;filter:url(#filter1013)"
     id="ellipse1081"
     transform="rotate(45,61.905459,-874.18292)"
     ry="46.404835"
     rx="31.974064"
     cy="-42.559273"
     cx="792.18744" />
  <g
     id="g61"
     transform="translate(0.0011241,-289.93995)"
     style="opacity:0.2">
    <g
       id="g60"
       style="opacity:0.166247">
      <path
         id="path60"
         style="fill:none;stroke:#ffffff;stroke-width:0.25;stroke-linecap:butt;stroke-linejoin:miter;stroke-dasharray:none;stroke-opacity:1"
         d="M 0,0.25 H 300.00392 M 0,10.25 H 300.00387 M 0,20.25 H 300.00392 M 0,30.25 H 300.00387 M 0,40.25 H 300.00392 M 0,50.25 H 300.00387 M 0,60.25 H 300.00392 M 0,70.25 H 300.00387 M 0,80.25 H 300.00392 M 0,90.25 H 300.00387 M 0,100.25 H 300.00392 M 0,110.25 H 300.00387 M 0,120.25 H 300.00392 M 0,130.25 H 300.00387 M 0,140.25 H 300.00392 M 0,150.25 H 300.00387 M 0,160.25 H 300.00392 M 0,170.25 H 300.00387 M 0,180.25 H 300.00392 M 0,190.25 H 300.00387 M 0,200.25 H 300.00392 M 0,210.25 H 300.00387 M 0,220.25 H 300.00392 M 0,230.25 H 300.00387 M 0,240.25 H 300.00392 M 0,250.25 H 300.00387 M 0,260.25 H 300.00392 M 0,270.25 H 300.00387 M 0,280.25 H 300.00392 M 0,290.25 H 300.00387 M 290.25,0 V 300.06608 M 280.25,0 V 300.06603 M 270.25,0 V 300.06608 M 260.25,0 V 300.06603 M 250.25,0 V 300.06608 M 240.25,0 V 300.06603 M 230.25,0 V 300.06608 M 220.25,0 V 300.06603 M 210.25,0 V 300.06608 M 200.25,0 V 300.06603 M 190.25,0 V 300.06608 M 180.25,0 V 300.06603 M 170.25,0 V 300.06608 M 160.25,0 V 300.06603 M 150.25,0 V 300.06608 M 140.25,0 V 300.06603 M 130.25,0 V 300.06608 M 120.25,0 V 300.06603 M 110.25,0 V 300.06608 M 100.25,0 V 300.06603 M 90.25,0 V 300.06608 M 80.25,0 V 300.06603 M 70.25,0 V 300.06608 M 60.25,0 V 300.06603 M 50.25,0 V 300.06608 M 40.25,0 V 300.06603 M 30.25,0 V 300.06608 M 20.25,0 V 300.06603 M 10.25,0 V 300.06608 M 0.25,0 V 300.06603 M 5e-5,290.19108 h 300.00392 m -300.00392,10 h 300.00387 m -300.00387,10 h 300.00392 m -300.00392,10 h 300.00387 m -300.00387,10 h 300.00392 m -300.00392,10 h 300.00387 m -300.00387,10 h 300.00392 m -300.00392,10 h 300.00387 m -300.00387,10 h 300.00392 m -300.00392,10 h 300.00387 m -300.00387,10 h 300.00392 m -300.00392,10 h 300.00387 m -300.00387,10 h 300.00392 m -300.00392,10 h 300.00387 m -300.00387,10 h 300.00392 m -300.00392,10 h 300.00387 m -300.00387,10 h 300.00392 m -300.00392,10 h 300.00387 m -300.00387,10 h 300.00392 m -300.00392,10 h 300.00387 m -300.00387,10 h 300.00392 m -300.00392,10 h 300.00387 m -300.00387,10 h 300.00392 m -300.00392,10 h 300.00387 m -300.00387,10 h 300.00392 m -300.00392,10 h 300.00387 m -300.00387,10 h 300.00392 m -300.00392,10 h 300.00387 m -300.00387,10 h 300.00392 m -300.00392,10 h 300.00387 m -9.75387,-290.25 v 300.06608 m -10,-300.06608 v 300.06603 m -10,-300.06603 v 300.06608 m -10,-300.06608 v 300.06603 m -10,-300.06603 v 300.06608 m -10,-300.06608 v 300.06603 m -10,-300.06603 v 300.06608 m -10,-300.06608 v 300.06603 m -10,-300.06603 v 300.06608 m -10,-300.06608 v 300.06603 m -10,-300.06603 v 300.06608 m -10,-300.06608 v 300.06603 m -10,-300.06603 v 300.06608 m -10,-300.06608 v 300.06603 m -10,-300.06603 v 300.06608 m -10,-300.06608 v 300.06603 m -10,-300.06603 v 300.06608 m -10,-300.06608 v 300.06603 m -10,-300.06603 v 300.06608 m -10,-300.06608 v 300.06603 m -10,-300.06603 v 300.06608 m -10,-300.06608 v 300.06603 m -10,-300.06603 v 300.06608 m -10,-300.06608 v 300.06603 m -10,-300.06603 v 300.06608 m -10,-300.06608 v 300.06603 m -10,-300.06603 v 300.06608 m -10,-300.06608 v 300.06603 m -10,-300.06603 v 300.06608 m -10,-300.06608 v 300.06603" />
    </g>
  </g>
</svg>
