<?xml version="1.0" encoding="UTF-8" standalone="no"?>
<!-- Created with Inkscape (http://www.inkscape.org/) -->

<svg
   width="125.84581mm"
   height="33.460373mm"
   viewBox="0 0 125.84581 33.460373"
   version="1.1"
   id="svg1"
   inkscape:version="1.4 (1:1.4+202410161351+e7c3feb100)"
   sodipodi:docname="xchoccy_wt_top.svg"
   xmlns:inkscape="http://www.inkscape.org/namespaces/inkscape"
   xmlns:sodipodi="http://sodipodi.sourceforge.net/DTD/sodipodi-0.dtd"
   xmlns="http://www.w3.org/2000/svg"
   xmlns:svg="http://www.w3.org/2000/svg">
  <sodipodi:namedview
     id="namedview1"
     pagecolor="#505050"
     bordercolor="#eeeeee"
     borderopacity="1"
     inkscape:showpageshadow="0"
     inkscape:pageopacity="0"
     inkscape:pagecheckerboard="0"
     inkscape:deskcolor="#505050"
     inkscape:document-units="mm"
     inkscape:zoom="2.0157702"
     inkscape:cx="218.77494"
     inkscape:cy="50.849051"
     inkscape:window-width="3440"
     inkscape:window-height="1353"
     inkscape:window-x="0"
     inkscape:window-y="0"
     inkscape:window-maximized="1"
     inkscape:current-layer="layer1" />
  <defs
     id="defs1" />
  <g
     inkscape:label="Layer 1"
     inkscape:groupmode="layer"
     id="layer1"
     transform="translate(-18.609409,-123.50809)">
    <path
       d="m 115.36425,144.42421 c -0.1907,-10e-4 -0.25502,0.0373 -0.33022,0.10335 -0.0752,0.066 -0.15324,0.18705 -0.24804,0.34985 -0.0948,0.1628 -0.20684,0.36706 -0.4098,0.54467 -0.20295,0.17761 -0.50543,0.29794 -0.85369,0.29094 -0.40815,-0.009 -0.73452,-0.23911 -0.98237,-0.5116 0.0415,1.27587 0.35817,2.42471 0.9741,3.43545 0.6604,1.08374 1.58349,1.9303 2.76882,2.5399 0.30056,0.14817 0.61158,0.27796 0.93328,0.38912 0.96512,0.33348 2.02551,0.50023 3.1812,0.50023 1.43933,0 2.71783,-0.25423 3.83543,-0.76223 1.13453,-0.508 2.04923,-1.23609 2.7435,-2.18436 0.26885,-0.35847 0.49784,-0.73966 0.68678,-1.14412 0.0945,-0.20222 0.17869,-0.41053 0.25321,-0.62425 0.0745,-0.21372 0.13922,-0.43315 0.19379,-0.65836 0.007,-0.0307 0.0128,-0.061 0.0165,-0.0909 0.007,-0.06 0.008,-0.11854 0.002,-0.17467 -0.0415,-0.36484 -0.36118,-0.6351 -0.77204,-0.6351 h -3.88452 c -0.32302,0 -0.67162,0.25161 -0.85111,0.51935 -0.17096,0.25501 -0.38679,0.47142 -0.64802,0.64906 -0.4064,0.27093 -0.88918,0.40669 -1.44798,0.40669 -0.7112,0 -1.28675,-0.22016 -1.72702,-0.66043 -0.0218,-0.0236 -0.0367,-0.0517 -0.0574,-0.076 -0.13135,0.13634 -0.29291,0.25439 -0.47697,0.33796 -0.18424,0.0836 -0.39143,0.13281 -0.61598,0.13281 -0.4923,0 -0.89484,-0.25039 -1.14619,-0.56637 -0.0627,-0.0789 -0.11881,-0.16111 -0.16949,-0.24546 v -5.2e-4 c -0.1522,-0.25343 -0.25661,-0.52569 -0.35192,-0.7829 -0.12709,-0.34295 -0.23807,-0.66417 -0.35192,-0.85783 -0.0285,-0.0484 -0.0523,-0.0867 -0.0739,-0.11679 -0.0216,-0.0301 -0.0414,-0.0518 -0.0605,-0.0677 -0.0382,-0.0318 -0.0753,-0.0395 -0.12919,-0.0398 z"
       style="font-weight:860;font-size:25.4px;line-height:0.4;font-family:Garet;-inkscape-font-specification:'Garet weight=860';text-align:center;text-anchor:middle;fill:#ffffff;stroke-width:1.05833"
       id="path24" />
    <path
       d="m 115.36425,144.42421 h 5.1e-4 c 0.0539,3e-4 0.091,0.008 0.12919,0.0398 0.0191,0.0159 0.0389,0.0376 0.0605,0.0677 0.0216,0.0301 0.0454,0.0684 0.0739,0.11679 0.11385,0.19366 0.22483,0.51488 0.35192,0.85783 0.0953,0.25721 0.19972,0.52947 0.35192,0.7829 v 5.2e-4 c 0.0507,0.0844 0.10679,0.16656 0.16949,0.24546 0.25135,0.31598 0.65389,0.56637 1.14619,0.56637 0.22455,0 0.43174,-0.0492 0.61598,-0.13281 0.18406,-0.0836 0.34562,-0.20162 0.47697,-0.33796 0.0207,0.0243 0.0356,0.0524 0.0574,0.076 0.44027,0.44027 1.01582,0.66043 1.72702,0.66043 0.5588,0 1.04158,-0.13576 1.44798,-0.40669 0.26123,-0.17764 0.47706,-0.39405 0.64802,-0.64906 0.17949,-0.26774 0.52809,-0.51935 0.85111,-0.51935 h 3.88452 c 0.41086,0 0.73054,0.27026 0.77204,0.6351 0.006,0.0561 0.005,0.11467 -0.002,0.17467 -0.004,0.03 -0.01,0.0602 -0.0165,0.0909 -0.0546,0.22521 -0.11929,0.44464 -0.19379,0.65836 -0.0745,0.21372 -0.15871,0.42203 -0.25321,0.62425 -0.18894,0.40446 -0.41793,0.78565 -0.68678,1.14412 -0.69427,0.94827 -1.60897,1.67636 -2.7435,2.18436 -1.1176,0.508 -2.3961,0.76223 -3.83543,0.76223 -1.15569,0 -2.21608,-0.16675 -3.1812,-0.50023 -0.3217,-0.11116 -0.63272,-0.24095 -0.93328,-0.38912 -1.18533,-0.6096 -2.10842,-1.45616 -2.76882,-2.5399 -0.61593,-1.01074 -0.9326,-2.15958 -0.9741,-3.43545 0.24785,0.27249 0.57422,0.5026 0.98237,0.5116 0.34826,0.007 0.65074,-0.11333 0.85369,-0.29094 0.20296,-0.17761 0.315,-0.38187 0.4098,-0.54467 0.0948,-0.1628 0.17284,-0.28385 0.24804,-0.34985 0.0752,-0.066 0.13952,-0.10435 0.33022,-0.10335 z"
       style="font-weight:860;font-size:25.4px;line-height:0.4;font-family:Garet;-inkscape-font-specification:'Garet weight=860';text-align:center;text-anchor:middle;fill:#ffffff;stroke-width:1.05833"
       id="path23" />
    <path
       d="m 63.590645,144.32447 c -0.15397,0 -0.191376,0.0354 -0.293006,0.1974 -0.10162,0.16196 -0.196602,0.44337 -0.296622,0.7519 -0.10002,0.30854 -0.206488,0.64408 -0.412378,0.94309 -0.20589,0.29901 -0.570779,0.55501 -1.017509,0.55501 v 4.21679 a 0.69624062,0.69624062 0 0 0 0.696598,0.69608 H 66.7951 a 0.56751844,0.56751844 0 0 0 0.567408,-0.5674 v -4.39147 c -0.3167,0.30477 -0.726539,0.52659 -1.209229,0.52659 -0.54364,0 -0.983363,-0.26057 -1.267623,-0.59997 -0.28426,-0.3394 -0.450422,-0.74474 -0.593762,-1.12086 -0.14334,-0.37613 -0.265701,-0.72973 -0.392741,-0.94723 -0.12705,-0.21746 -0.181658,-0.25993 -0.308508,-0.25993 z"
       style="font-weight:860;font-size:25.4px;line-height:0.4;font-family:Garet;-inkscape-font-specification:'Garet weight=860';text-align:center;text-anchor:middle;fill:#ffffff;stroke-width:1.05833"
       id="path22" />
    <path
       d="m 53.982446,144.19218 c -0.14881,0 -0.303008,0.0574 -0.437183,0.14779 -0.03343,0.0225 -0.06605,0.0477 -0.09663,0.0739 -0.0919,0.0789 -0.169119,0.1728 -0.221175,0.2713 -0.25451,0.48152 -0.606089,0.87611 -1.054199,1.18339 -0.59267,0.4064 -1.2867,0.60927 -2.08256,0.60927 -0.99907,0 -1.820473,-0.33862 -2.463933,-1.01596 -0.0286,-0.0317 -0.04763,-0.0693 -0.07493,-0.1018 -0.09434,0.095 -0.200557,0.18179 -0.317293,0.25321 -0.03878,0.0237 -0.07931,0.0461 -0.120406,0.0661 -0.164837,0.0803 -0.348043,0.12919 -0.546737,0.12919 -0.242137,0 -0.46079,-0.0532 -0.648022,-0.13953 -0.11234,-0.0518 -0.213479,-0.1155 -0.301274,-0.18655 -0.117055,-0.0947 -0.213103,-0.1978 -0.296622,-0.30076 -0.08352,-0.10297 -0.154506,-0.20584 -0.221176,-0.30075 -0.13333,-0.18982 -0.250079,-0.34562 -0.368969,-0.44132 -0.11889,-0.0957 -0.229593,-0.15038 -0.454753,-0.15038 -0.0829,0 -0.142289,0.0135 -0.197404,0.0506 -0.02746,0.0185 -0.05439,0.043 -0.08217,0.0744 -0.02788,0.0315 -0.05686,0.0703 -0.08992,0.1173 -0.13224,0.18801 -0.264281,0.4963 -0.410311,0.83199 -0.14604,0.33568 -0.30968,0.70027 -0.57981,1.00976 -0.27014,0.3095 -0.680627,0.55162 -1.185457,0.55862 -0.14913,0.002 -0.290967,-0.0209 -0.425297,-0.062 0.11089,0.25362 0.2175,0.50924 0.3514,0.75086 0.198968,0.35137 0.417643,0.68306 0.655773,0.99529 0.05953,0.0781 0.119922,0.15487 0.181902,0.23048 0.681829,0.83185 1.511747,1.51544 2.48977,2.05103 0.6223,0.34078 1.286533,0.60723 1.99316,0.79892 0.100946,0.0274 0.202741,0.0532 0.305408,0.0775 h 5.17e-4 c 0.102506,0.0243 0.205837,0.0469 0.310058,0.0682 h 5.17e-4 c 0.104223,0.0213 0.209288,0.0412 0.315226,0.0594 0.636785,0.1096 1.304298,0.16433 2.002979,0.16433 1.69334,0 3.225535,-0.32186 4.597135,-0.96532 1.3716,-0.6604 2.489167,-1.58348 3.352767,-2.76882 0.7487,-1.00786 1.252536,-2.15636 1.511536,-3.44579 0.04781,-0.2381 -0.04293,-0.44945 -0.212391,-0.57464 -0.03389,-0.025 -0.07085,-0.0469 -0.110587,-0.0646 -0.07947,-0.0353 -0.169487,-0.0548 -0.26665,-0.0548 z"
       style="font-weight:860;font-size:25.4px;line-height:0.4;font-family:Garet;-inkscape-font-specification:'Garet weight=860';text-align:center;text-anchor:middle;fill:#ffffff;stroke-width:1.05833"
       id="path21" />
    <path
       d="m 53.982446,144.19218 h 4.802291 c 0.09716,0 0.18718,0.0195 0.26665,0.0548 0.03974,0.0177 0.0767,0.0396 0.110587,0.0646 0.16946,0.12519 0.260201,0.33654 0.212391,0.57464 -0.259,1.28943 -0.762836,2.43793 -1.511536,3.44579 -0.8636,1.18534 -1.981167,2.10842 -3.352767,2.76882 -1.3716,0.64346 -2.903795,0.96532 -4.597135,0.96532 -0.698681,0 -1.366194,-0.0547 -2.002979,-0.16433 -0.105938,-0.0182 -0.211003,-0.0381 -0.315226,-0.0594 h -5.17e-4 c -0.104221,-0.0213 -0.207552,-0.0439 -0.310058,-0.0682 h -5.17e-4 c -0.102667,-0.0243 -0.204462,-0.0501 -0.305408,-0.0775 -0.706627,-0.19169 -1.37086,-0.45814 -1.99316,-0.79892 -0.978023,-0.53559 -1.807941,-1.21918 -2.48977,-2.05103 -0.06198,-0.0756 -0.122372,-0.15238 -0.181902,-0.23048 -0.23813,-0.31223 -0.456805,-0.64392 -0.655773,-0.99529 -0.1339,-0.24162 -0.24051,-0.49724 -0.3514,-0.75086 0.13433,0.0411 0.276167,0.064 0.425297,0.062 0.50483,-0.007 0.915317,-0.24912 1.185457,-0.55862 0.27013,-0.30949 0.43377,-0.67408 0.57981,-1.00976 0.14603,-0.33569 0.278071,-0.64398 0.410311,-0.83199 0.03306,-0.047 0.06204,-0.0858 0.08992,-0.1173 0.02778,-0.0314 0.0547,-0.0559 0.08217,-0.0744 0.05512,-0.0371 0.114504,-0.0506 0.197404,-0.0506 0.22516,0 0.335863,0.0547 0.454753,0.15038 0.11889,0.0957 0.235639,0.2515 0.368969,0.44132 0.06667,0.0949 0.137656,0.19778 0.221176,0.30075 0.08352,0.10296 0.179567,0.20606 0.296622,0.30076 0.08779,0.0711 0.188934,0.13475 0.301274,0.18655 0.187232,0.0863 0.405885,0.13953 0.648022,0.13953 0.198694,0 0.3819,-0.0489 0.546737,-0.12919 0.0411,-0.02 0.08163,-0.0425 0.120406,-0.0661 0.116736,-0.0714 0.222953,-0.15821 0.317293,-0.25321 0.0273,0.0325 0.04633,0.0701 0.07493,0.1018 0.64346,0.67734 1.464863,1.01596 2.463933,1.01596 0.79586,0 1.48989,-0.20287 2.08256,-0.60927 0.44811,-0.30728 0.799689,-0.70187 1.054199,-1.18339 0.05206,-0.0985 0.129275,-0.1924 0.221175,-0.2713 0.03059,-0.0262 0.0632,-0.0514 0.09663,-0.0739 0.134175,-0.0904 0.288373,-0.14779 0.437183,-0.14779 z"
       style="font-weight:860;font-size:25.4px;line-height:0.4;font-family:Garet;-inkscape-font-specification:'Garet weight=860';text-align:center;text-anchor:middle;fill:#ffffff;stroke-width:1.05833"
       id="path20" />
    <path
       d="m 21.034584,144.13999 c -0.0334,8.9e-4 -0.04181,0.0111 -0.05271,0.0186 -0.0217,0.015 -0.0898,0.109 -0.199471,0.2775 -0.10964,0.16851 -0.276702,0.39669 -0.558622,0.56224 -0.28192,0.1655 -0.658902,0.2588 -1.156002,0.2465 -0.14115,-0.004 -0.273996,-0.0292 -0.399976,-0.0698 0.45627,3.83294 3.874579,6.73194 7.945769,6.73861 3.642509,-0.006 6.822115,-2.33968 7.738545,-5.67976 -0.0667,-0.11153 -0.141619,-0.21234 -0.223759,-0.28835 -0.14221,-0.13163 -0.28847,-0.20309 -0.51573,-0.20309 -0.16028,0 -0.309487,0.0957 -0.511597,0.36122 -0.2021,0.26552 -0.410023,0.66676 -0.635103,1.08624 -0.22509,0.41948 -0.467961,0.85828 -0.798401,1.21853 -0.33045,0.36025 -0.782753,0.64647 -1.336353,0.64647 -0.49987,1e-5 -0.899256,-0.1607 -1.171505,-0.40411 -0.27225,-0.24341 -0.418479,-0.53671 -0.543119,-0.78341 -0.12464,-0.24669 -0.230183,-0.44712 -0.349333,-0.56638 -0.11916,-0.11926 -0.238312,-0.19027 -0.539502,-0.19327 -0.22581,-0.002 -0.328146,0.0886 -0.494026,0.36949 -0.16588,0.28092 -0.31563,0.71967 -0.49196,1.17564 -0.17633,0.45598 -0.379948,0.9369 -0.746208,1.31413 -0.36625,0.37724 -0.927249,0.61108 -1.603519,0.52348 -0.73544,-0.0953 -1.250984,-0.63335 -1.591634,-1.2733 -0.34065,-0.63994 -0.549971,-1.41423 -0.725021,-2.17558 -0.17506,-0.76135 -0.312565,-1.51133 -0.468705,-2.06293 -0.0781,-0.2758 -0.163866,-0.50158 -0.241846,-0.64027 -0.078,-0.13866 -0.133724,-0.16219 -0.127124,-0.16019 -0.11136,-0.0306 -0.169678,-0.0391 -0.203088,-0.0382 z"
       style="font-weight:860;font-size:25.4px;line-height:0.4;font-family:Garet;-inkscape-font-specification:'Garet weight=860';text-align:center;text-anchor:middle;fill:#ffffff;stroke-width:1.05833"
       id="path19" />
    <path
       d="m 21.034584,144.13999 c 0.03341,-9e-4 0.09173,0.008 0.203088,0.0382 -0.0066,-0.002 0.04912,0.0215 0.127124,0.16019 0.07798,0.13869 0.163746,0.36447 0.241846,0.64027 0.15614,0.5516 0.293645,1.30158 0.468705,2.06293 0.17505,0.76135 0.384371,1.53564 0.725021,2.17558 0.34065,0.63995 0.856194,1.178 1.591634,1.2733 0.67627,0.0876 1.237269,-0.14624 1.603519,-0.52348 0.36626,-0.37723 0.569878,-0.85815 0.746208,-1.31413 0.17633,-0.45597 0.32608,-0.89472 0.49196,-1.17564 0.16588,-0.28088 0.268216,-0.37149 0.494026,-0.36949 0.30119,0.003 0.420342,0.074 0.539502,0.19327 0.11915,0.11926 0.224693,0.31969 0.349333,0.56638 0.12464,0.2467 0.270869,0.54 0.543119,0.78341 0.272249,0.24341 0.671635,0.40412 1.171505,0.40411 0.5536,0 1.005903,-0.28622 1.336353,-0.64647 0.33044,-0.36025 0.573311,-0.79905 0.798401,-1.21853 0.22508,-0.41948 0.433003,-0.82072 0.635103,-1.08624 0.20211,-0.26551 0.351317,-0.36122 0.511597,-0.36122 0.22726,0 0.37352,0.0715 0.51573,0.20309 0.08214,0.076 0.157059,0.17682 0.223759,0.28835 -0.91643,3.34008 -4.096036,5.67376 -7.738545,5.67976 -4.07119,-0.007 -7.489499,-2.90567 -7.945769,-6.73861 0.12598,0.0406 0.258826,0.0658 0.399976,0.0698 0.4971,0.0123 0.874082,-0.081 1.156002,-0.2465 0.28192,-0.16555 0.448982,-0.39373 0.558622,-0.56224 0.109671,-0.1685 0.177771,-0.2625 0.199471,-0.2775 0.0109,-0.007 0.01931,-0.0177 0.05271,-0.0186 z"
       style="font-weight:860;font-size:25.4px;line-height:0.4;font-family:Garet;-inkscape-font-specification:'Garet weight=860';text-align:center;text-anchor:middle;fill:#ffffff;stroke-width:1.05833"
       id="path18" />
    <path
       d="m 73.428804,144.02785 c -0.14834,0 -0.191825,0.0327 -0.293005,0.16174 -0.10117,0.12908 -0.208826,0.3577 -0.328146,0.61547 -0.11933,0.25778 -0.252485,0.54878 -0.486275,0.79892 -0.175245,0.1875 -0.423316,0.34217 -0.717269,0.40773 -0.09806,0.0218 -0.201018,0.0336 -0.308508,0.0336 -0.26165,0 -0.499501,-0.0735 -0.707451,-0.18759 v 5.35988 a 0.46722406,0.46722406 0 0 0 0.288355,0.4315 0.46722406,0.46722406 0 0 0 0.1788,0.0357 h 4.675684 a 0.64872928,0.64872928 0 0 0 0.648539,-0.64853 v -4.3217 c -0.21241,0.13736 -0.458435,0.22324 -0.733805,0.22324 -0.51852,0 -0.937114,-0.27524 -1.185974,-0.61909 -0.24885,-0.34386 -0.37911,-0.74545 -0.49196,-1.11931 -0.08463,-0.28041 -0.160357,-0.5484 -0.237195,-0.75499 -0.02561,-0.0689 -0.05125,-0.13118 -0.07751,-0.18449 -0.0525,-0.10657 -0.104873,-0.17272 -0.138493,-0.20102 -0.0336,-0.0282 -0.03878,-0.031 -0.08578,-0.031 z"
       style="font-weight:860;font-size:25.4px;line-height:0.4;font-family:Garet;-inkscape-font-specification:'Garet weight=860';text-align:center;text-anchor:middle;fill:#ffffff;stroke-width:1.05833"
       id="path17" />
    <path
       d="m 95.676542,144.0139 c -0.0167,-4.7e-4 -0.02626,3.6e-4 -0.03876,5.1e-4 -0.0336,0.29777 -0.05581,0.60086 -0.05581,0.91416 0,1.38854 0.330237,2.62457 0.990637,3.7083 0.6604,1.08374 1.582976,1.9303 2.768306,2.5399 1.051985,0.51859 2.233695,0.8105 3.545015,0.87539 0.18733,0.009 0.37738,0.014 0.56999,0.014 0.35984,0 0.70982,-0.0159 1.04955,-0.0476 0.67927,-0.0636 1.31884,-0.19088 1.91771,-0.38137 0.29935,-0.0952 0.5889,-0.20637 0.86816,-0.33331 1.13454,-0.508 2.04872,-1.23609 2.74299,-2.18436 0.55508,-0.7401 0.94028,-1.57797 1.15497,-2.51406 0.10188,-0.44422 -0.22926,-0.81339 -0.68523,-0.81339 h -3.90467 c -0.36147,0 -0.75076,0.28328 -0.96015,0.57671 -0.16433,0.23029 -0.3673,0.42751 -0.60875,0.5917 -0.10147,0.0677 -0.20841,0.12697 -0.31936,0.17776 -0.33328,0.15248 -0.709,0.22893 -1.1281,0.22893 -0.7112,0 -1.28727,-0.22016 -1.72754,-0.66043 -0.1091,-0.11783 -0.20276,-0.24553 -0.28371,-0.38137 -0.0589,0.0107 -0.11985,0.0165 -0.18242,0.0165 -0.36066,0 -0.67189,-0.16636 -0.87488,-0.37466 -0.20298,-0.20829 -0.32732,-0.44642 -0.43564,-0.65629 -0.0542,-0.10493 -0.105201,-0.20351 -0.152441,-0.28835 -0.0472,-0.0848 -0.0906,-0.15592 -0.130741,-0.20567 -0.0745,-0.0926 -0.09551,-0.0987 -0.153996,-0.0997 -0.0142,0.0151 -0.04803,0.0549 -0.08423,0.13488 -0.0776,0.17159 -0.155919,0.4677 -0.255799,0.78496 -0.0999,0.31725 -0.221356,0.6638 -0.458886,0.96273 -0.23753,0.29892 -0.624578,0.53412 -1.097608,0.54312 -0.063,0.001 -0.124725,-0.002 -0.184485,-0.0103 h -5.17e-4 c -0.41944,-0.0572 -0.755236,-0.33263 -0.953946,-0.64802 -0.22709,-0.36045 -0.345576,-0.78116 -0.451136,-1.18133 -0.10556,-0.40016 -0.196159,-0.78407 -0.298689,-1.02733 -0.0513,-0.12163 -0.104543,-0.20387 -0.136943,-0.23667 -0.0324,-0.0324 -0.02309,-0.0243 -0.04289,-0.0248 z"
       style="font-weight:860;font-size:25.4px;line-height:0.4;font-family:Garet;-inkscape-font-specification:'Garet weight=860';text-align:center;text-anchor:middle;fill:#ffffff;stroke-width:1.05833"
       id="path16" />
    <path
       d="m 95.676542,144.0139 v 5.1e-4 c 0.0198,5e-4 0.01049,-0.008 0.04289,0.0248 0.0324,0.0328 0.08564,0.11504 0.136943,0.23667 0.10253,0.24326 0.193129,0.62717 0.298689,1.02733 0.10556,0.40017 0.224046,0.82088 0.451136,1.18133 0.19871,0.31539 0.534506,0.59082 0.953946,0.64802 h 5.17e-4 c 0.05976,0.008 0.121485,0.0113 0.184485,0.0103 0.47303,-0.009 0.860078,-0.2442 1.097608,-0.54312 0.23753,-0.29893 0.358986,-0.64548 0.458886,-0.96273 0.09988,-0.31726 0.178199,-0.61337 0.255799,-0.78496 0.0362,-0.08 0.07003,-0.11978 0.08423,-0.13488 0.05849,10e-4 0.0795,0.007 0.153996,0.0997 0.04014,0.0498 0.08354,0.12087 0.130741,0.20567 0.04724,0.0848 0.09825,0.18342 0.152442,0.28835 0.10832,0.20987 0.23266,0.448 0.43564,0.65629 0.20299,0.2083 0.51422,0.37466 0.87488,0.37466 0.0626,0 0.12352,-0.006 0.18242,-0.0165 0.0809,0.13584 0.17461,0.26354 0.28371,0.38137 0.44027,0.44027 1.01634,0.66043 1.72754,0.66043 0.4191,0 0.79482,-0.0764 1.1281,-0.22893 0.11095,-0.0508 0.21789,-0.11006 0.31936,-0.17776 0.24145,-0.16419 0.44442,-0.36141 0.60875,-0.5917 0.20939,-0.29343 0.59868,-0.57671 0.96015,-0.57671 h 3.90467 c 0.45597,0 0.78711,0.36917 0.68523,0.81339 -0.21469,0.93609 -0.59989,1.77396 -1.15497,2.51406 -0.69427,0.94827 -1.60845,1.67636 -2.74299,2.18436 -0.27926,0.12694 -0.56881,0.23811 -0.86816,0.33331 -0.59887,0.19049 -1.23844,0.31777 -1.91771,0.38137 -0.33973,0.0317 -0.68971,0.0476 -1.04955,0.0476 -0.19261,0 -0.38266,-0.005 -0.56999,-0.014 -1.31132,-0.0649 -2.49303,-0.3568 -3.545016,-0.87539 -1.18533,-0.6096 -2.107906,-1.45616 -2.768306,-2.5399 -0.6604,-1.08373 -0.990637,-2.31976 -0.990637,-3.7083 0,-0.3133 0.02221,-0.61639 0.05581,-0.91416 0.0125,-1.5e-4 0.02206,-9.8e-4 0.03876,-5.1e-4 z"
       style="font-weight:860;font-size:25.4px;line-height:0.4;font-family:Garet;-inkscape-font-specification:'Garet weight=860';text-align:center;text-anchor:middle;fill:#ffffff;stroke-width:1.05833"
       id="path15" />
    <path
       d="m 131.43252,143.58808 c -0.25216,-0.002 -0.38818,0.0721 -0.51367,0.19741 -0.036,0.0359 -0.0697,0.0778 -0.10128,0.12454 v 5.1e-4 c -0.0315,0.0466 -0.0612,0.0977 -0.0884,0.15193 l 3.07992,7.19078 c -0.1524,0.37254 -0.36417,0.63515 -0.63511,0.78755 -0.2032,0.127 -0.47766,0.20654 -0.82372,0.23822 -0.11535,0.0106 -0.23877,0.0155 -0.37,0.0155 h -1.13482 a 0.77057813,0.77057813 0 0 0 -0.77049,0.77049 v 3.11092 a 0.79220375,0.79220375 0 0 0 0.7922,0.7922 h 1.64641 c 0.16087,0 0.31811,-0.002 0.47129,-0.006 1.07229,-0.0278 1.95617,-0.15292 2.65255,-0.37517 0.79586,-0.23706 1.45634,-0.65222 1.98127,-1.24489 0.52494,-0.59267 0.99093,-1.43083 1.39733,-2.51457 l 2.84996,-7.22488 c -0.1,-0.25593 -0.2305,-0.4942 -0.38447,-0.65733 -0.17298,-0.18325 -0.35018,-0.28112 -0.62116,-0.28112 -0.26084,0 -0.39479,0.0898 -0.55655,0.29249 -0.16176,0.2027 -0.3072,0.52458 -0.44338,0.87126 -0.13618,0.34669 -0.26326,0.71538 -0.46302,1.03715 -0.19977,0.32178 -0.54129,0.62929 -0.99219,0.6289 -0.3687,-3.8e-4 -0.68482,-0.1282 -0.90227,-0.31419 -0.21745,-0.18598 -0.34232,-0.40802 -0.44132,-0.59221 -0.099,-0.18419 -0.17718,-0.33471 -0.23668,-0.40411 -0.0595,-0.0694 -0.0511,-0.0723 -0.14211,-0.0703 -0.0643,0.001 -0.0747,0.006 -0.16226,0.12092 -0.0876,0.11538 -0.19348,0.3272 -0.33797,0.56276 -0.0361,0.0589 -0.0764,0.11948 -0.12092,0.18035 -0.0445,0.0609 -0.0933,0.12223 -0.14676,0.18242 -0.32102,0.36115 -0.80964,0.68574 -1.53324,0.68574 -0.58343,0 -1.02038,-0.39731 -1.3007,-0.85318 -0.28031,-0.45586 -0.46565,-1.00625 -0.6444,-1.54099 -0.17875,-0.53474 -0.35039,-1.05441 -0.53537,-1.40249 -0.0462,-0.0869 -0.0932,-0.16205 -0.13849,-0.22428 v -5.2e-4 c -0.0454,-0.0623 -0.0893,-0.11139 -0.12919,-0.14624 -0.0797,-0.0697 -0.12702,-0.0892 -0.20102,-0.0899 z"
       style="font-weight:860;font-size:25.4px;line-height:0.4;font-family:Garet;-inkscape-font-specification:'Garet weight=860';text-align:center;text-anchor:middle;fill:#ffffff;stroke-width:1.05833"
       id="path14" />
    <path
       d="m 131.43252,143.58756 v 5.2e-4 c 0.074,7e-4 0.12132,0.0202 0.20102,0.0899 0.0399,0.0349 0.0838,0.0839 0.12919,0.14624 v 5.2e-4 c 0.0453,0.0622 0.0923,0.13738 0.13849,0.22428 0.18498,0.34808 0.35662,0.86775 0.53537,1.40249 0.17875,0.53474 0.36409,1.08513 0.6444,1.54099 0.28032,0.45587 0.71727,0.85318 1.3007,0.85318 0.7236,0 1.21222,-0.32459 1.53324,-0.68574 0.0535,-0.0602 0.10226,-0.12152 0.14676,-0.18242 0.0445,-0.0609 0.0848,-0.12145 0.12092,-0.18035 0.14449,-0.23556 0.25037,-0.44738 0.33797,-0.56276 0.0876,-0.11492 0.098,-0.11992 0.16226,-0.12092 0.091,-0.002 0.0826,8.8e-4 0.14211,0.0703 0.0595,0.0694 0.13768,0.21992 0.23668,0.40411 0.099,0.18419 0.22387,0.40623 0.44132,0.59221 0.21745,0.18599 0.53357,0.31381 0.90227,0.31419 0.4509,3.9e-4 0.79242,-0.30712 0.99219,-0.6289 0.19976,-0.32177 0.32684,-0.69046 0.46302,-1.03715 0.13618,-0.34668 0.28162,-0.66856 0.44338,-0.87126 0.16176,-0.20269 0.29571,-0.29249 0.55655,-0.29249 0.27098,0 0.44818,0.0979 0.62116,0.28112 0.15397,0.16313 0.28447,0.4014 0.38447,0.65733 l -2.84996,7.22488 c -0.4064,1.08374 -0.87239,1.9219 -1.39733,2.51457 -0.52493,0.59267 -1.18541,1.00783 -1.98127,1.24489 -0.69638,0.22225 -1.58026,0.34737 -2.65255,0.37517 -0.15318,0.004 -0.31042,0.006 -0.47129,0.006 h -1.64641 a 0.79220375,0.79220375 0 0 1 -0.7922,-0.7922 v -3.11092 a 0.77057813,0.77057813 0 0 1 0.77049,-0.77049 h 1.13482 c 0.13123,0 0.25465,-0.005 0.37,-0.0155 0.34606,-0.0317 0.62052,-0.11122 0.82372,-0.23822 0.27094,-0.1524 0.48271,-0.41501 0.63511,-0.78755 l -3.07992,-7.19078 c 0.0272,-0.0542 0.0569,-0.10533 0.0884,-0.15193 v -5.1e-4 c 0.0316,-0.0467 0.0653,-0.0886 0.10128,-0.12454 0.12549,-0.1253 0.26151,-0.19941 0.51367,-0.19741 z"
       style="font-weight:860;font-size:25.4px;line-height:0.4;font-family:Garet;-inkscape-font-specification:'Garet weight=860';text-align:center;text-anchor:middle;fill:#ffffff;stroke-width:1.05833"
       id="path13" />
    <path
       d="m 83.891731,143.19172 c -0.06172,0 -0.115443,0.007 -0.162781,0.0202 -0.04731,0.0136 -0.08928,0.0347 -0.128157,0.0646 -0.0194,0.015 -0.03844,0.0327 -0.05684,0.0522 -0.05549,0.059 -0.107919,0.13925 -0.167949,0.24598 -0.16007,0.2846 -0.292928,0.73077 -0.429948,1.20096 -0.119901,0.41141 -0.24348,0.84184 -0.448034,1.22421 -0.02922,0.0546 -0.06028,0.10824 -0.09302,0.16071 -0.196376,0.3147 -0.499548,0.59135 -0.8847,0.71004 -0.128457,0.0395 -0.265891,0.0615 -0.411861,0.0615 -0.349191,0 -0.654011,-0.10898 -0.900721,-0.2775 h -5.18e-4 c -0.148064,-0.10119 -0.27499,-0.22392 -0.378272,-0.3576 -0.03434,-0.0444 -0.06698,-0.0897 -0.09767,-0.13591 v -5.2e-4 c -0.03068,-0.0462 -0.05986,-0.093 -0.08733,-0.14056 v -5.1e-4 c -0.110031,-0.19051 -0.196111,-0.39073 -0.272334,-0.58911 l -5.17e-4,-5.2e-4 c -0.03814,-0.0993 -0.07353,-0.19808 -0.108521,-0.29507 -0.06992,-0.19381 -0.137264,-0.38037 -0.205672,-0.54622 v -5.2e-4 c -0.0106,-0.0257 -0.02137,-0.0472 -0.03204,-0.0718 -0.05817,-0.13437 -0.117682,-0.25641 -0.180351,-0.34985 -0.03702,-0.0552 -0.07153,-0.10165 -0.105937,-0.14056 v -5.2e-4 c -0.01716,-0.0194 -0.03454,-0.0371 -0.05219,-0.0527 -0.05311,-0.047 -0.110471,-0.0776 -0.181901,-0.0946 h -5.17e-4 c -0.04777,-0.0113 -0.101671,-0.0165 -0.165364,-0.0165 -0.0238,0 -0.03928,0.003 -0.06098,0.004 -0.0225,0.1714 -0.03998,0.34536 -0.05168,0.52245 v 5.2e-4 c -0.01168,0.17693 -0.01757,0.35699 -0.01757,0.54002 0,0.5334 0.04739,1.04277 0.142627,1.52859 v 5.1e-4 c 0.158758,0.80951 0.450081,1.55317 0.873332,2.23036 0.338665,0.5334 0.744918,1.00738 1.219047,1.42213 0.474131,0.41475 1.01614,0.77027 1.62574,1.06661 0.1524,0.0741 0.307387,0.14341 0.465605,0.20825 h 5.17e-4 c 0.632744,0.25923 1.312299,0.44486 2.038118,0.55604 0.544491,0.0834 1.115138,0.12506 1.71204,0.12506 0.201084,0 0.399272,-0.005 0.594279,-0.014 0.390012,-0.0185 0.767575,-0.0555 1.133265,-0.1111 0.365692,-0.0556 0.719567,-0.12957 1.060917,-0.22221 0.34117,-0.0926 0.670696,-0.20423 0.987536,-0.33383 0.15834,-0.0648 0.313862,-0.13424 0.466122,-0.20825 0.6096,-0.29634 1.149102,-0.65186 1.619022,-1.06661 0.46991,-0.41475 0.870244,-0.88873 1.200444,-1.42213 0.34214,-0.54742 0.593644,-1.14054 0.759644,-1.77612 v -5.2e-4 c 0.0332,-0.12699 0.063,-0.25564 0.0894,-0.38602 v -5.2e-4 c 0.0528,-0.26109 0.0921,-0.52868 0.118339,-0.80305 -0.12896,0.35432 -0.278308,0.69579 -0.461988,0.99116 -0.14458,0.23249 -0.319879,0.45117 -0.528649,0.61133 -0.10434,0.08 -0.217665,0.14568 -0.339515,0.1912 -0.0913,0.0341 -0.188224,0.0568 -0.289904,0.0661 -0.034,0.003 -0.06819,0.005 -0.103353,0.005 -0.25794,0 -0.485275,-0.0856 -0.676445,-0.21859 h -5.17e-4 c -0.19124,-0.1331 -0.34613,-0.3138 -0.45992,-0.50436 -0.11379,-0.19057 -0.203803,-0.39732 -0.282153,-0.60926 -0.0784,-0.21194 -0.145033,-0.42905 -0.211873,-0.64079 -0.13369,-0.42347 -0.268057,-0.82587 -0.422197,-1.08004 -0.0384,-0.0633 -0.0738,-0.11622 -0.10852,-0.15968 l -5.17e-4,-5.2e-4 c -0.1044,-0.13065 -0.202905,-0.17725 -0.363285,-0.17725 -0.19819,0 -0.388534,0.062 -0.566374,0.1664 -0.29658,0.17419 -0.560013,0.46702 -0.775663,0.79065 -0.007,0.0111 -0.01347,0.022 -0.02067,0.0331 -0.0495,0.60891 -0.263829,1.12011 -0.664559,1.52084 -0.05706,0.0549 -0.116748,0.10694 -0.177767,0.15503 -0.366632,0.28883 -0.805238,0.45371 -1.314648,0.49506 -0.08494,0.007 -0.17155,0.0103 -0.26045,0.0103 -0.7112,0 -1.295147,-0.22016 -1.752347,-0.66043 -0.17145,-0.17145 -0.310915,-0.36196 -0.418063,-0.57154 -0.178579,-0.34931 -0.267684,-0.75156 -0.267684,-1.20665 0,-0.16353 0.01214,-0.31993 0.03617,-0.46922 0.01201,-0.0747 0.02706,-0.14743 0.04496,-0.21859 0.0358,-0.14232 0.08325,-0.27752 0.142111,-0.40618 0.0588,-0.12852 0.129151,-0.25059 0.210323,-0.36586 v -5.2e-4 c 0.04064,-0.0577 0.0841,-0.11352 0.130224,-0.16795 -0.14253,-0.067 -0.310298,-0.10852 -0.519348,-0.10852 z"
       style="font-weight:860;font-size:25.4px;line-height:0.4;font-family:Garet;-inkscape-font-specification:'Garet weight=860';text-align:center;text-anchor:middle;fill:#ffffff;stroke-width:1.05833"
       id="path12" />
    <path
       d="m 83.891731,143.19172 v 5.2e-4 c 0.20905,0 0.376818,0.0415 0.519348,0.10852 -0.04612,0.0544 -0.08958,0.11025 -0.130224,0.16795 v 5.2e-4 c -0.08117,0.11527 -0.151523,0.23734 -0.210323,0.36586 -0.05886,0.12866 -0.106311,0.26386 -0.142111,0.40618 -0.0179,0.0712 -0.03295,0.14389 -0.04496,0.21859 -0.02403,0.14929 -0.03617,0.30569 -0.03617,0.46922 0,0.45509 0.08911,0.85734 0.267684,1.20665 0.107148,0.20958 0.246613,0.40009 0.418063,0.57154 0.4572,0.44027 1.041147,0.66043 1.752347,0.66043 0.0889,0 0.17551,-0.003 0.26045,-0.0103 0.50941,-0.0413 0.948016,-0.20623 1.314648,-0.49506 0.06102,-0.0481 0.120707,-0.10013 0.177767,-0.15503 0.40073,-0.40073 0.615059,-0.91193 0.664559,-1.52084 0.0072,-0.0111 0.01367,-0.022 0.02067,-0.0331 0.21565,-0.32363 0.479083,-0.61646 0.775663,-0.79065 0.17784,-0.1044 0.368184,-0.1664 0.566374,-0.1664 0.16038,0 0.258885,0.0466 0.363285,0.17725 l 5.17e-4,5.2e-4 c 0.03472,0.0435 0.07012,0.0964 0.10852,0.15968 0.15414,0.25417 0.288507,0.65657 0.422197,1.08004 0.06684,0.21174 0.133473,0.42885 0.211873,0.64079 0.07835,0.21194 0.168363,0.41869 0.282153,0.60926 0.11379,0.19056 0.26868,0.37126 0.45992,0.50436 h 5.17e-4 c 0.19117,0.13299 0.418505,0.21859 0.676445,0.21859 0.03516,0 0.06935,-0.002 0.103353,-0.005 0.10168,-0.009 0.198604,-0.032 0.289904,-0.0661 0.12185,-0.0455 0.235175,-0.1112 0.339515,-0.1912 0.20877,-0.16016 0.384069,-0.37884 0.528649,-0.61133 0.18368,-0.29537 0.333028,-0.63684 0.461988,-0.99116 -0.02624,0.27437 -0.06554,0.54196 -0.118339,0.80305 v 5.2e-4 c -0.0264,0.13038 -0.0562,0.25903 -0.0894,0.38602 v 5.2e-4 c -0.166,0.63558 -0.417504,1.2287 -0.759644,1.77612 -0.3302,0.5334 -0.730534,1.00738 -1.200444,1.42213 -0.46992,0.41475 -1.009422,0.77027 -1.619022,1.06661 -0.15226,0.074 -0.307782,0.14345 -0.466122,0.20825 -0.31684,0.1296 -0.646366,0.24123 -0.987536,0.33383 -0.34135,0.0926 -0.695225,0.16661 -1.060917,0.22221 -0.36569,0.0556 -0.743253,0.0926 -1.133265,0.1111 -0.195007,0.009 -0.393195,0.014 -0.594279,0.014 -0.596902,0 -1.167549,-0.0417 -1.71204,-0.12506 -0.725819,-0.11118 -1.405374,-0.29681 -2.038118,-0.55604 h -5.17e-4 c -0.158218,-0.0648 -0.313205,-0.13415 -0.465605,-0.20825 -0.6096,-0.29634 -1.151609,-0.65186 -1.62574,-1.06661 -0.474129,-0.41475 -0.880382,-0.88873 -1.219047,-1.42213 -0.423251,-0.67719 -0.714574,-1.42085 -0.873332,-2.23036 v -5.1e-4 c -0.09524,-0.48582 -0.142627,-0.99519 -0.142627,-1.52859 0,-0.18303 0.0059,-0.36309 0.01757,-0.54002 v -5.2e-4 c 0.0117,-0.17709 0.02918,-0.35105 0.05168,-0.52245 0.0217,-0.001 0.03718,-0.004 0.06098,-0.004 0.06369,0 0.117594,0.005 0.165364,0.0165 h 5.17e-4 c 0.07143,0.017 0.128791,0.0476 0.181901,0.0946 0.01765,0.0156 0.03503,0.0333 0.05219,0.0527 v 5.2e-4 c 0.03441,0.0389 0.06892,0.0854 0.105937,0.14056 0.06267,0.0934 0.122181,0.21548 0.180351,0.34985 0.01067,0.0246 0.02144,0.0461 0.03204,0.0718 v 5.2e-4 c 0.06841,0.16585 0.135752,0.35241 0.205672,0.54622 0.03499,0.097 0.07038,0.19577 0.108521,0.29507 l 5.17e-4,5.2e-4 c 0.07622,0.19838 0.162303,0.3986 0.272334,0.58911 v 5.1e-4 c 0.02747,0.0476 0.05665,0.0944 0.08733,0.14056 v 5.2e-4 c 0.03069,0.0462 0.06333,0.0915 0.09767,0.13591 0.103282,0.13368 0.230208,0.25641 0.378272,0.3576 h 5.16e-4 c 0.24671,0.16852 0.55153,0.2775 0.900721,0.2775 0.14597,0 0.283404,-0.022 0.411861,-0.0615 0.385152,-0.11869 0.688324,-0.39534 0.8847,-0.71004 0.03274,-0.0525 0.0638,-0.10611 0.09302,-0.16071 0.204554,-0.38237 0.328133,-0.8128 0.448034,-1.22421 0.13702,-0.47019 0.269878,-0.91636 0.429948,-1.20096 0.06003,-0.10673 0.112459,-0.18698 0.167949,-0.24598 0.0184,-0.0195 0.03744,-0.0372 0.05684,-0.0522 0.03888,-0.0299 0.08085,-0.051 0.128157,-0.0646 0.04734,-0.0132 0.101061,-0.0202 0.162781,-0.0202 z"
       style="font-weight:860;font-size:25.4px;line-height:0.4;font-family:Garet;-inkscape-font-specification:'Garet weight=860';text-align:center;text-anchor:middle;fill:#ffffff;stroke-width:1.05833"
       id="path11" />
    <path
       d="m 129.03421,138.14655 a 0.55320806,0.55320806 0 0 0 -0.50849,0.77102 l 1.84071,4.29792 c 0.25528,-0.25087 0.63227,-0.42409 1.07384,-0.42013 0.27507,0.002 0.52846,0.11998 0.71675,0.28474 0.18829,0.16475 0.32557,0.37025 0.44545,0.59583 0.23975,0.45115 0.4096,0.99567 0.58601,1.52342 0.17642,0.52774 0.36131,1.03697 0.57051,1.37718 0.20919,0.3402 0.37836,0.47439 0.6227,0.47439 0.69075,0 0.88358,-0.27951 1.12293,-0.66973 0.11967,-0.19511 0.22514,-0.41625 0.38499,-0.62683 0.15984,-0.21058 0.4341,-0.42708 0.77721,-0.43408 0.31646,-0.006 0.59931,0.16012 0.76016,0.34778 0.16086,0.18766 0.24643,0.3826 0.33383,0.54518 0.0874,0.16258 0.17142,0.28954 0.25942,0.36484 0.088,0.0753 0.17597,0.1233 0.38499,0.12351 0.12682,1.1e-4 0.18875,-0.0476 0.31832,-0.25632 0.12957,-0.2087 0.25668,-0.54708 0.39843,-0.90795 0.14175,-0.36087 0.29893,-0.74634 0.56069,-1.07436 0.26176,-0.32802 0.67245,-0.59169 1.1777,-0.59169 0.49511,0 0.91304,0.22573 1.19941,0.52916 0.0693,0.0734 0.13164,0.15121 0.18914,0.23152 l 2.15387,-5.46014 a 0.74979279,0.74979279 0 0 0 -0.69763,-1.02526 h -4.17442 a 1.1951852,1.1951852 0 0 0 -1.14722,0.8599 l -0.84077,2.87424 -0.81287,2.94608 h -0.076 l -0.93999,-2.94608 -0.9834,-3.01118 a 1.047789,1.047789 0 0 0 -0.99581,-0.72296 z"
       style="font-weight:860;font-size:25.4px;line-height:0.4;font-family:Garet;-inkscape-font-specification:'Garet weight=860';text-align:center;text-anchor:middle;fill:#ffffff;stroke-width:1.05833"
       id="path10" />
    <path
       d="m 120.39753,137.79102 c -1.524,0 -2.88688,0.30507 -4.08915,0.91467 -1.18533,0.59266 -2.11682,1.43085 -2.79415,2.51458 -0.47673,0.78234 -0.77536,1.64681 -0.90795,2.58795 0.0106,0.0237 0.0205,0.0471 0.0315,0.0708 0.13645,0.29304 0.30329,0.58019 0.47232,0.77153 0.16903,0.19133 0.31451,0.26775 0.42788,0.26975 0.18604,0.004 0.24426,-0.0326 0.31626,-0.0956 0.072,-0.063 0.14943,-0.18255 0.24443,-0.34572 0.095,-0.16317 0.20822,-0.37 0.41186,-0.5488 0.20364,-0.17879 0.50651,-0.30327 0.85783,-0.30127 0.4342,0.002 0.7613,0.30833 0.9431,0.61753 0.1818,0.30921 0.29154,0.6584 0.41237,0.98444 0.12082,0.32603 0.25096,0.6249 0.39843,0.81028 0.14746,0.18538 0.26899,0.26769 0.52503,0.26769 0.26016,0 0.40773,-0.0898 0.55501,-0.26355 0.039,-0.0461 0.0757,-0.0994 0.11058,-0.15762 -0.0989,-0.28862 -0.15037,-0.60728 -0.15037,-0.95911 0,-0.74506 0.21177,-1.33793 0.6351,-1.77819 0.44027,-0.4572 1.01583,-0.68574 1.72703,-0.68574 0.52493,0 0.98202,0.11846 1.37149,0.35553 0.24431,0.14251 0.455,0.32518 0.632,0.54725 0.20052,0.25158 0.56955,0.49455 0.89194,0.49455 h 3.93774 c 0.46258,0 0.79661,-0.37437 0.68781,-0.82373 -0.21358,-0.88216 -0.58708,-1.67476 -1.12034,-2.37711 -0.69427,-0.9144 -1.60845,-1.61681 -2.74299,-2.10788 -1.1176,-0.508 -2.37931,-0.76223 -3.78478,-0.76223 z"
       style="font-weight:860;font-size:25.4px;line-height:0.4;font-family:Garet;-inkscape-font-specification:'Garet weight=860';text-align:center;text-anchor:middle;fill:#ffffff;stroke-width:1.05833"
       id="path9" />
    <path
       d="m 103.45593,137.79102 c -1.52401,0 -2.88742,0.30507 -4.089691,0.91467 -1.18533,0.59266 -2.116288,1.43085 -2.793628,2.51458 -0.37635,0.61762 -0.632904,1.29053 -0.794784,2.00711 0.19835,0.0262 0.381369,0.12653 0.506429,0.25321 0.14169,0.14352 0.230535,0.31109 0.304375,0.48628 0.14769,0.35038 0.233576,0.75279 0.334346,1.13481 0.10077,0.38202 0.217464,0.73997 0.355534,0.95912 0.13808,0.21921 0.229745,0.29132 0.451135,0.28732 0.25369,-0.005 0.36502,-0.0826 0.49196,-0.24236 0.12694,-0.15976 0.233571,-0.41969 0.324011,-0.70694 0.0904,-0.28724 0.162738,-0.59331 0.289388,-0.87333 0.0633,-0.14001 0.140124,-0.27783 0.269234,-0.39842 0.12912,-0.12054 0.32614,-0.21084 0.52555,-0.21084 0.33599,0 0.618521,0.19604 0.784961,0.40256 0.16645,0.20651 0.2693,0.43078 0.37156,0.6289 0.10226,0.19813 0.20142,0.36687 0.29663,0.46457 0.0688,0.0706 0.12094,0.11038 0.2005,0.12712 -0.0375,-0.19287 -0.0625,-0.39393 -0.0625,-0.61081 0,-0.74506 0.21126,-1.33793 0.63459,-1.77819 0.44027,-0.4572 1.01634,-0.68574 1.72754,-0.68574 0.52493,0 0.98203,0.11846 1.3715,0.35553 0.2371,0.1383 0.44228,0.31439 0.61598,0.52762 0.21189,0.26011 0.5965,0.51418 0.93276,0.51418 h 3.98218 c 0.42414,0 0.73027,-0.34302 0.63459,-0.75603 -0.21066,-0.9094 -0.58949,-1.72453 -1.13636,-2.44481 -0.69427,-0.9144 -1.60846,-1.61681 -2.74299,-2.10788 -1.1176,-0.508 -2.37931,-0.76223 -3.78478,-0.76223 z"
       style="font-weight:860;font-size:25.4px;line-height:0.4;font-family:Garet;-inkscape-font-specification:'Garet weight=860';text-align:center;text-anchor:middle;fill:#ffffff;stroke-width:1.05833"
       id="path8" />
    <path
       d="m 86.285383,137.79102 c -1.59174,0 -2.99708,0.29668 -4.21628,0.88935 -1.2192,0.59266 -2.167457,1.43085 -2.844787,2.51458 -0.36446,0.57403 -0.622826,1.20356 -0.791166,1.8805 0.47232,0.0343 0.846892,0.31535 1.069702,0.64751 0.23765,0.35432 0.368992,0.76302 0.505912,1.14256 0.13691,0.37955 0.277681,0.72808 0.447001,0.94723 0.16932,0.21915 0.321934,0.32608 0.652674,0.32608 0.30584,0 0.447587,-0.11697 0.623217,-0.39843 0.17563,-0.28145 0.317236,-0.72274 0.452686,-1.18752 0.13544,-0.46478 0.265918,-0.9523 0.500228,-1.36891 0.23432,-0.41661 0.651531,-0.78547 1.207161,-0.78548 0.46888,0 0.849007,0.15448 1.148767,0.3793 0.36062,-0.20228 0.771805,-0.31315 1.244885,-0.31315 0.7112,0 1.295665,0.22854 1.752865,0.68574 0.2609,0.2609 0.438344,0.57118 0.550354,0.92036 0.380486,-0.374 0.867823,-0.66818 1.476913,-0.66818 0.51964,0 0.918867,0.33926 1.150317,0.72089 0.23144,0.38164 0.365761,0.82732 0.499711,1.2516 0.13395,0.42427 0.268049,0.82743 0.420129,1.08211 0.15207,0.25464 0.24987,0.33589 0.45527,0.33589 0.1594,0 0.362891,-0.14092 0.586011,-0.49971 0.22311,-0.35879 0.424239,-0.88217 0.579809,-1.41231 0.20124,-0.68582 0.325164,-1.34767 0.392224,-1.75132 -0.16748,-0.69735 -0.428048,-1.34576 -0.802018,-1.93476 -0.6604,-1.08373 -1.600266,-1.92192 -2.819466,-2.51458 -1.2192,-0.59267 -2.633459,-0.88935 -4.242119,-0.88935 z"
       style="font-weight:860;font-size:25.4px;line-height:0.4;font-family:Garet;-inkscape-font-specification:'Garet weight=860';text-align:center;text-anchor:middle;fill:#ffffff;stroke-width:1.05833"
       id="path7" />
    <path
       d="m 26.613572,136.73579 c -4.39044,0.003 -7.960263,3.35372 -8.004163,7.51323 0.14668,0.13106 0.300967,0.19618 0.478007,0.20051 0.39362,0.01 0.603552,-0.0581 0.734322,-0.13488 0.13077,-0.0768 0.204353,-0.1727 0.295073,-0.31212 0.0907,-0.13942 0.181958,-0.33636 0.413928,-0.4961 0.23197,-0.1597 0.567753,-0.1902 0.917773,-0.094 0.29294,0.0805 0.477765,0.30356 0.609265,0.53744 0.1315,0.23387 0.225873,0.50579 0.312643,0.81235 0.17355,0.6131 0.308904,1.36395 0.478524,2.10168 0.16963,0.73774 0.375076,1.45971 0.652156,1.98024 0.27708,0.52052 0.580855,0.80578 0.994255,0.85938 0.47259,0.0612 0.704389,-0.0569 0.929659,-0.28887 0.22527,-0.23202 0.410042,-0.61733 0.576192,-1.04697 0.16614,-0.42963 0.312994,-0.89361 0.548804,-1.29294 0.23581,-0.39934 0.642077,-0.76671 1.185457,-0.76171 0.468,0.004 0.84692,0.18059 1.09399,0.42788 0.24706,0.2473 0.375535,0.53084 0.496094,0.76946 0.12056,0.23862 0.229375,0.43116 0.363285,0.55087 0.1339,0.11968 0.293168,0.20102 0.642338,0.20102 0.29546,0 0.512989,-0.12966 0.752409,-0.39067 0.23943,-0.26102 0.463762,-0.64789 0.683162,-1.05678 0.2194,-0.40888 0.432527,-0.83744 0.703317,-1.19321 0.27079,-0.35575 0.647726,-0.67386 1.142566,-0.67386 0.36845,0 0.691144,0.13047 0.939994,0.32039 0.0443,-0.31267 0.0679,-0.62762 0.0708,-0.94309 -10e-6,-1.95334 -0.794741,-3.82412 -2.205551,-5.22966 -0.21796,-0.21715 -0.52921,-0.1602 -0.69143,0.10129 -0.65576,1.05709 -1.47366,2.01674 -2.445329,2.86959 0.230289,0.0816 0.480039,0.14344 0.750859,0.18604 a 0.39687499,0.39687499 0 0 1 0.330212,0.45526 0.39687499,0.39687499 0 0 1 -0.453202,0.3297 c -1.640879,-0.25813 -2.806989,-1.26983 -3.328479,-2.88044 a 0.39687499,0.39687499 0 0 1 0.256315,-0.50023 0.39687499,0.39687499 0 0 1 0.499711,0.2558 c 0.0907,0.28022 0.198034,0.533 0.321944,0.76067 0.94809,-0.78681 1.716011,-1.66433 2.314071,-2.64428 0.15508,-0.25409 0.0512,-0.57433 -0.224793,-0.68575 -0.989309,-0.39936 -2.055105,-0.6065 -3.134175,-0.60719 z"
       style="font-weight:860;font-size:25.4px;line-height:0.4;font-family:Garet;-inkscape-font-specification:'Garet weight=860';text-align:center;text-anchor:middle;fill:#ffffff;stroke-width:1.05833"
       id="path6" />
    <path
       d="m 49.861767,133.5241 c -1.8288,0 -3.454305,0.38946 -4.876705,1.1684 -1.4224,0.77893 -2.531578,1.87083 -3.327445,3.27629 -0.778933,1.40547 -1.168405,3.0142 -1.168405,4.82606 0,0.95021 0.113913,1.84151 0.328146,2.67994 0.05615,0.0815 0.113678,0.15823 0.172082,0.22686 0.254962,0.29961 0.495177,0.44018 0.732255,0.43718 0.285021,-0.004 0.433359,-0.0989 0.59738,-0.2868 0.164022,-0.18792 0.309327,-0.48271 0.449585,-0.80512 0.140259,-0.3224 0.274324,-0.66828 0.488342,-0.97255 0.214019,-0.30428 0.571321,-0.57981 1.019576,-0.57981 0.3889,0 0.717573,0.13672 0.952914,0.32608 0.23534,0.18936 0.385739,0.41337 0.519348,0.60358 0.133609,0.1902 0.251401,0.34571 0.369486,0.44131 0.118084,0.0956 0.22649,0.15038 0.449068,0.15038 0.163089,0 0.307653,-0.0811 0.47439,-0.27337 0.02098,-0.0242 0.0419,-0.0498 0.06253,-0.077 -0.268935,-0.54285 -0.417546,-1.16065 -0.417546,-1.87068 0,-1.10066 0.313461,-1.98968 0.939994,-2.66702 0.643467,-0.67733 1.481642,-1.01596 2.514575,-1.01596 0.762,0 1.430863,0.20338 2.006596,0.60978 0.480788,0.31594 0.844637,0.72658 1.091407,1.23197 0.09665,0.19793 0.33203,0.36793 0.552421,0.36793 h 4.887557 c 0.404956,0 0.680448,-0.32434 0.587044,-0.7183 -0.306368,-1.29222 -0.825022,-2.43256 -1.555978,-3.4215 -0.846666,-1.18533 -1.94694,-2.09165 -3.301607,-2.71818 -1.337733,-0.62653 -2.853676,-0.93947 -4.547009,-0.93947 z"
       style="font-weight:860;font-size:25.4px;line-height:0.4;font-family:Garet;-inkscape-font-specification:'Garet weight=860';text-align:center;text-anchor:middle;fill:#ffffff;stroke-width:1.05833"
       id="path5" />
    <path
       d="m 49.861767,133.5241 c 1.693333,0 3.209276,0.31294 4.547009,0.93947 1.354667,0.62653 2.454941,1.53285 3.301607,2.71818 0.730956,0.98894 1.24961,2.12928 1.555978,3.4215 0.0934,0.39396 -0.182088,0.7183 -0.587044,0.7183 H 53.79176 c -0.220391,0 -0.455771,-0.17 -0.552421,-0.36793 -0.24677,-0.50539 -0.610619,-0.91603 -1.091407,-1.23197 -0.575733,-0.4064 -1.244596,-0.60978 -2.006596,-0.60978 -1.032933,0 -1.871108,0.33863 -2.514575,1.01596 -0.626533,0.67734 -0.939994,1.56636 -0.939994,2.66702 0,0.71003 0.148611,1.32783 0.417546,1.87068 -0.02063,0.0272 -0.04155,0.0528 -0.06253,0.077 -0.166737,0.19227 -0.311301,0.27337 -0.47439,0.27337 -0.222578,0 -0.330984,-0.0548 -0.449068,-0.15038 -0.118085,-0.0956 -0.235877,-0.25111 -0.369486,-0.44131 -0.133609,-0.19021 -0.284008,-0.41422 -0.519348,-0.60358 -0.235341,-0.18936 -0.564014,-0.32608 -0.952914,-0.32608 -0.448255,0 -0.805557,0.27553 -1.019576,0.57981 -0.214018,0.30427 -0.348083,0.65015 -0.488342,0.97255 -0.140258,0.32241 -0.285563,0.6172 -0.449585,0.80512 -0.164021,0.1879 -0.312359,0.2828 -0.59738,0.2868 -0.237078,0.003 -0.477293,-0.13757 -0.732255,-0.43718 -0.0584,-0.0686 -0.115932,-0.14536 -0.172082,-0.22686 -0.214233,-0.83843 -0.328146,-1.72973 -0.328146,-2.67994 0,-1.81186 0.389472,-3.42059 1.168405,-4.82606 0.795867,-1.40546 1.905045,-2.49736 3.327445,-3.27629 1.4224,-0.77894 3.047905,-1.1684 4.876705,-1.1684 z"
       style="font-weight:860;font-size:25.4px;line-height:0.4;font-family:Garet;-inkscape-font-specification:'Garet weight=860';text-align:center;text-anchor:middle;fill:#ffffff;stroke-width:1.05833"
       id="path4" />
    <path
       d="m 62.267728,132.88899 a 0.69624062,0.69624062 0 0 0 -0.696598,0.69608 v 12.39356 c 0.19411,0 0.255262,-0.051 0.365352,-0.21084 0.11008,-0.15988 0.210178,-0.43513 0.308508,-0.73845 0.0983,-0.30331 0.194536,-0.63273 0.380856,-0.92966 0.18632,-0.29693 0.533999,-0.56793 0.964799,-0.56793 0.45792,0 0.800734,0.32086 0.994254,0.65216 0.19353,0.33131 0.313548,0.71099 0.449068,1.0666 0.13552,0.35561 0.284024,0.68304 0.459404,0.89245 0.17539,0.2094 0.340628,0.3142 0.659908,0.3142 0.29616,0 0.530365,-0.13742 0.765845,-0.41186 0.16649,-0.19404 0.315464,-0.45464 0.443384,-0.73639 v -0.88832 c 0,-0.64346 0.144144,-1.13463 0.432014,-1.4733 0.28786,-0.33867 0.694118,-0.50798 1.219048,-0.50798 0.508,0 0.897464,0.16092 1.168404,0.48266 0.27093,0.32173 0.406176,0.79612 0.406176,1.42265 v 0.44959 c 0.0547,0.0771 0.111103,0.14883 0.170533,0.20774 0.16704,0.16565 0.325568,0.24856 0.536918,0.24856 0.22676,0 0.325691,-0.0615 0.445451,-0.18965 0.11975,-0.12813 0.233632,-0.34149 0.347782,-0.58808 0.11414,-0.24659 0.22636,-0.52389 0.42168,-0.77308 0.19532,-0.2492 0.52402,-0.46715 0.91829,-0.46715 0.22435,0 0.442169,0.0883 0.597379,0.21911 0.1552,0.13082 0.258131,0.29058 0.340031,0.45682 0.16379,0.33248 0.254449,0.70872 0.361219,1.06246 0.10677,0.35374 0.229081,0.68079 0.375171,0.88264 0.14608,0.20187 0.266809,0.28938 0.543119,0.28938 0.24156,0 0.414061,-0.12177 0.605131,-0.40824 0.0449,-0.0673 0.0876,-0.14377 0.128674,-0.22531 v -1.90169 c 0,-1.79493 -0.499556,-3.20866 -1.498616,-4.2416 -0.98214,-1.04986 -2.319852,-1.5751 -4.013192,-1.5751 -1.35466,0 -2.523072,0.34754 -3.505212,1.0418 v -5.33766 a 0.60596156,0.60596156 0 0 0 -0.606165,-0.60617 z"
       style="font-weight:860;font-size:25.4px;line-height:0.4;font-family:Garet;-inkscape-font-specification:'Garet weight=860';text-align:center;text-anchor:middle;fill:#ffffff;stroke-width:1.05833"
       id="path3" />
    <path
       d="m 62.267728,132.88899 h 4.488615 a 0.60596156,0.60596156 0 0 1 0.606165,0.60617 v 5.33766 c 0.98214,-0.69426 2.150552,-1.0418 3.505212,-1.0418 1.69334,0 3.031052,0.52524 4.013192,1.5751 0.99906,1.03294 1.498616,2.44667 1.498616,4.2416 v 1.90169 c -0.04107,0.0815 -0.08377,0.15801 -0.128674,0.22531 -0.19107,0.28647 -0.363571,0.40824 -0.605131,0.40824 -0.27631,0 -0.397039,-0.0875 -0.543119,-0.28938 -0.14609,-0.20185 -0.268401,-0.5289 -0.375171,-0.88264 -0.10677,-0.35374 -0.197429,-0.72998 -0.361219,-1.06246 -0.0819,-0.16624 -0.184831,-0.326 -0.340031,-0.45682 -0.15521,-0.13081 -0.373029,-0.21911 -0.597379,-0.21911 -0.39427,0 -0.72297,0.21795 -0.91829,0.46715 -0.19532,0.24919 -0.30754,0.52649 -0.42168,0.77308 -0.11415,0.24659 -0.228032,0.45995 -0.347782,0.58808 -0.11976,0.12816 -0.218691,0.18965 -0.445451,0.18965 -0.21135,0 -0.369878,-0.0829 -0.536918,-0.24856 -0.05943,-0.0589 -0.115833,-0.13064 -0.170533,-0.20774 v -0.44959 c 0,-0.62653 -0.135246,-1.10092 -0.406176,-1.42265 -0.27094,-0.32174 -0.660404,-0.48266 -1.168404,-0.48266 -0.52493,0 -0.931188,0.16931 -1.219048,0.50798 -0.28787,0.33867 -0.432014,0.82984 -0.432014,1.4733 v 0.88832 c -0.12792,0.28175 -0.276894,0.54235 -0.443384,0.73639 -0.23548,0.27444 -0.469685,0.41186 -0.765845,0.41186 -0.31928,0 -0.484518,-0.1048 -0.659908,-0.3142 -0.17538,-0.20941 -0.323884,-0.53684 -0.459404,-0.89245 -0.13552,-0.35561 -0.255538,-0.73529 -0.449068,-1.0666 -0.19352,-0.3313 -0.536334,-0.65216 -0.994254,-0.65216 -0.4308,0 -0.778479,0.271 -0.964799,0.56793 -0.18632,0.29693 -0.282556,0.62635 -0.380856,0.92966 -0.09833,0.30332 -0.198428,0.57857 -0.308508,0.73845 -0.11009,0.15984 -0.171242,0.21084 -0.365352,0.21084 v -12.39356 a 0.69624062,0.69624062 0 0 1 0.696598,-0.69608 z m 11.161076,11.13886 c 0.047,0 0.05218,0.003 0.08578,0.031 0.03362,0.0283 0.08599,0.0944 0.138493,0.20102 0.02626,0.0533 0.0519,0.11559 0.07751,0.18449 0.07684,0.20659 0.152565,0.47458 0.237195,0.75499 0.11285,0.37386 0.24311,0.77545 0.49196,1.11931 0.24886,0.34385 0.667454,0.61909 1.185974,0.61909 0.27537,0 0.521395,-0.0859 0.733805,-0.22324 v 4.3217 a 0.64872928,0.64872928 0 0 1 -0.648539,0.64853 h -4.675684 a 0.46722406,0.46722406 0 0 1 -0.1788,-0.0357 0.46722406,0.46722406 0 0 1 -0.288355,-0.4315 v -5.35988 c 0.20795,0.11409 0.445801,0.18759 0.707451,0.18759 0.10749,0 0.210448,-0.0118 0.308508,-0.0336 0.293953,-0.0656 0.542024,-0.22023 0.717269,-0.40773 0.23379,-0.25014 0.366945,-0.54114 0.486275,-0.79892 0.11932,-0.25777 0.226976,-0.48639 0.328146,-0.61547 0.10118,-0.12905 0.144665,-0.16174 0.293005,-0.16174 z m -9.838159,0.29662 c 0.12685,0 0.181458,0.0425 0.308508,0.25993 0.12704,0.2175 0.249401,0.5711 0.392741,0.94723 0.14334,0.37612 0.309502,0.78146 0.593762,1.12086 0.28426,0.3394 0.723983,0.59997 1.267623,0.59997 0.48269,0 0.892529,-0.22182 1.209229,-0.52659 v 4.39147 a 0.56751844,0.56751844 0 0 1 -0.567408,0.5674 h -4.527372 a 0.69624062,0.69624062 0 0 1 -0.696598,-0.69608 v -4.21679 c 0.44673,0 0.811619,-0.256 1.017509,-0.55501 0.20589,-0.29901 0.312358,-0.63455 0.412378,-0.94309 0.10002,-0.30853 0.195002,-0.58994 0.296622,-0.7519 0.10163,-0.16201 0.139036,-0.1974 0.293006,-0.1974 z"
       style="font-weight:860;font-size:25.4px;line-height:0.4;font-family:Garet;-inkscape-font-specification:'Garet weight=860';text-align:center;text-anchor:middle;fill:#ffffff;stroke-width:1.05833"
       id="path2" />
    <path
       d="m 31.564691,123.51644 a 0.39687499,0.39687499 0 0 0 -0.204639,0.0114 v -5.2e-4 a 0.39687499,0.39687499 0 0 0 -0.251664,0.5023 c 1.23748,3.72218 1.639513,6.99661 1.198893,9.78906 -0.44061,2.79245 -1.711121,5.10883 -3.8809,6.9727 a 0.39687499,0.39687499 0 0 0 -0.04289,0.56018 0.39687499,0.39687499 0 0 0 0.56069,0.0434 c 2.301669,-1.97718 3.681544,-4.4913 4.148584,-7.45122 0.46704,-2.95992 0.03264,-6.35899 -1.232483,-10.16424 a 0.39687499,0.39687499 0 0 0 -0.295589,-0.26303 z"
       style="font-weight:860;font-size:25.4px;line-height:0.4;font-family:Garet;-inkscape-font-specification:'Garet weight=860';text-align:center;text-anchor:middle;fill:#ffffff;stroke-width:1.05833"
       id="path1" />
  </g>
</svg>
