<?xml version="1.0" encoding="UTF-8" standalone="no"?>
<!-- Created with Inkscape (http://www.inkscape.org/) -->

<svg
   width="125.84582mm"
   height="41.671116mm"
   viewBox="0 0 125.84582 41.671116"
   version="1.1"
   id="svg1"
   inkscape:version="1.4 (1:1.4+202410161351+e7c3feb100)"
   sodipodi:docname="xchoccy_wt_top.svg"
   xmlns:inkscape="http://www.inkscape.org/namespaces/inkscape"
   xmlns:sodipodi="http://sodipodi.sourceforge.net/DTD/sodipodi-0.dtd"
   xmlns="http://www.w3.org/2000/svg"
   xmlns:svg="http://www.w3.org/2000/svg">
  <sodipodi:namedview
     id="namedview1"
     pagecolor="#505050"
     bordercolor="#eeeeee"
     borderopacity="1"
     inkscape:showpageshadow="0"
     inkscape:pageopacity="0"
     inkscape:pagecheckerboard="0"
     inkscape:deskcolor="#505050"
     inkscape:document-units="mm"
     inkscape:zoom="2.0157702"
     inkscape:cx="259.45418"
     inkscape:cy="119.30924"
     inkscape:window-width="3440"
     inkscape:window-height="1353"
     inkscape:window-x="0"
     inkscape:window-y="0"
     inkscape:window-maximized="1"
     inkscape:current-layer="layer1" />
  <defs
     id="defs1" />
  <g
     inkscape:label="Layer 1"
     inkscape:groupmode="layer"
     id="layer1"
     transform="translate(-18.609409,-123.50817)">
    <path
       id="path1"
       style="font-weight:860;font-size:25.4px;line-height:0.4;font-family:Garet;-inkscape-font-specification:'Garet weight=860';text-align:center;text-anchor:middle;fill:#ffffff;fill-opacity:1;stroke-width:1.05833"
       d="m 62.267728,132.88908 a 0.69624062,0.69624062 0 0 0 -0.696598,0.69608 v 12.39356 c 0.19411,0 0.255262,-0.051 0.365352,-0.21084 0.11008,-0.15988 0.210178,-0.43514 0.308508,-0.73846 0.0983,-0.30331 0.194535,-0.63273 0.380855,-0.92966 0.18632,-0.29693 0.533999,-0.56792 0.964799,-0.56792 0.45792,0 0.800735,0.32085 0.994255,0.65215 0.19353,0.33131 0.313548,0.711 0.449068,1.06661 0.13552,0.35561 0.284024,0.68304 0.459404,0.89245 0.17539,0.2094 0.340628,0.31419 0.659908,0.31419 0.29616,0 0.530364,-0.13742 0.765844,-0.41186 0.16649,-0.19404 0.315464,-0.45464 0.443384,-0.73639 v -0.88832 c 0,-0.64346 0.144145,-1.13462 0.432015,-1.47329 0.28786,-0.33867 0.694117,-0.50798 1.219047,-0.50798 0.508,0 0.897464,0.16092 1.168404,0.48266 0.27093,0.32173 0.406177,0.79612 0.406177,1.42265 v 0.44958 c 0.0547,0.0771 0.111102,0.14883 0.170532,0.20774 0.16704,0.16565 0.325569,0.24857 0.536919,0.24857 0.22676,0 0.32569,-0.0615 0.44545,-0.18966 0.11975,-0.12813 0.233633,-0.34148 0.347783,-0.58807 0.11414,-0.24659 0.226359,-0.52389 0.421679,-0.77308 0.19532,-0.2492 0.524021,-0.46716 0.918291,-0.46716 0.22435,0 0.442169,0.0883 0.597379,0.21911 0.1552,0.13082 0.258131,0.29058 0.340031,0.45682 0.16379,0.33248 0.254448,0.70873 0.361218,1.06247 0.10677,0.35374 0.229081,0.68078 0.375171,0.88263 0.14608,0.20187 0.26681,0.28939 0.54312,0.28939 0.24156,0 0.414061,-0.12178 0.605131,-0.40825 0.0449,-0.0673 0.0876,-0.14377 0.128674,-0.22531 v -1.90169 c 0,-1.79493 -0.499557,-3.20866 -1.498617,-4.2416 -0.98214,-1.04986 -2.319851,-1.5751 -4.013191,-1.5751 -1.35466,0 -2.523073,0.34754 -3.505213,1.0418 v -5.33766 a 0.60596156,0.60596156 0 0 0 -0.606164,-0.60616 z m -12.405961,0.6351 c -1.8288,0 -3.454305,0.38946 -4.876705,1.1684 -1.4224,0.77893 -2.531579,1.87083 -3.327446,3.27629 -0.778933,1.40547 -1.168404,3.0142 -1.168404,4.82606 0,0.95021 0.113913,1.84151 0.328146,2.67994 0.05615,0.0815 0.113678,0.15823 0.172082,0.22686 0.254962,0.29961 0.495177,0.44018 0.732255,0.43718 0.285021,-0.004 0.433359,-0.0989 0.59738,-0.2868 0.164022,-0.18792 0.309327,-0.48271 0.449585,-0.80512 0.140259,-0.3224 0.274324,-0.66828 0.488342,-0.97255 0.214019,-0.30428 0.571321,-0.57981 1.019576,-0.57981 0.3889,0 0.717572,0.13672 0.952913,0.32608 0.23534,0.18936 0.385739,0.41337 0.519348,0.60358 0.133609,0.1902 0.251402,0.34572 0.369487,0.44132 0.118084,0.0956 0.22649,0.15038 0.449068,0.15038 0.163089,0 0.307653,-0.0811 0.47439,-0.27337 0.02098,-0.0242 0.0419,-0.0498 0.06253,-0.077 -0.268935,-0.54285 -0.417545,-1.16066 -0.417545,-1.87069 0,-1.10066 0.313461,-1.98968 0.939994,-2.66702 0.643467,-0.67733 1.481642,-1.01596 2.514575,-1.01596 0.762,0 1.430863,0.20338 2.006596,0.60978 0.480788,0.31594 0.844636,0.72658 1.091406,1.23197 0.09665,0.19793 0.33203,0.36794 0.552421,0.36794 h 4.887557 c 0.404956,0 0.680449,-0.32435 0.587045,-0.71831 -0.306368,-1.29222 -0.825022,-2.43255 -1.555978,-3.42149 -0.846666,-1.18533 -1.94694,-2.09165 -3.301607,-2.71818 -1.337733,-0.62653 -2.853676,-0.93948 -4.547009,-0.93948 z m 36.423616,4.26692 c -1.59174,0 -2.99708,0.29668 -4.21628,0.88935 -1.2192,0.59266 -2.167457,1.43085 -2.844787,2.51458 -0.36446,0.57403 -0.622827,1.20357 -0.791167,1.88051 0.47232,0.0343 0.846893,0.31534 1.069703,0.6475 0.23765,0.35432 0.368992,0.76303 0.505912,1.14257 0.13691,0.37955 0.277681,0.72808 0.447001,0.94723 0.16932,0.21915 0.321933,0.32607 0.652673,0.32607 0.30584,0 0.447588,-0.11696 0.623218,-0.39842 0.17563,-0.28145 0.317236,-0.72275 0.452686,-1.18753 0.13544,-0.46478 0.265917,-0.95229 0.500227,-1.3689 0.23432,-0.41661 0.651532,-0.78548 1.207162,-0.78549 0.46888,0 0.849007,0.15449 1.148767,0.37931 0.36062,-0.20228 0.771805,-0.31316 1.244885,-0.31316 0.7112,0 1.295665,0.22855 1.752865,0.68575 0.2609,0.2609 0.438344,0.57117 0.550354,0.92035 0.380486,-0.374 0.867826,-0.66817 1.476916,-0.66817 0.51964,0 0.91886,0.33925 1.15031,0.72088 0.23144,0.38164 0.36576,0.82733 0.49971,1.25161 0.13395,0.42427 0.26805,0.82742 0.42013,1.0821 0.15207,0.25464 0.24987,0.3359 0.45527,0.3359 0.1594,0 0.36289,-0.14092 0.58601,-0.49971 0.22311,-0.35879 0.42424,-0.88218 0.57981,-1.41232 0.20124,-0.68582 0.32517,-1.34766 0.39223,-1.75131 -0.16748,-0.69735 -0.42805,-1.34577 -0.80202,-1.93477 -0.6604,-1.08373 -1.60027,-1.92192 -2.81947,-2.51458 -1.2192,-0.59267 -2.633455,-0.88935 -4.242115,-0.88935 z m 17.170547,0 c -1.52401,0 -2.88742,0.30508 -4.089692,0.91468 -1.18533,0.59266 -2.11629,1.43084 -2.79363,2.51457 -0.37635,0.61762 -0.6329,1.29053 -0.79478,2.00711 0.19835,0.0262 0.38137,0.12654 0.50643,0.25322 0.14169,0.14352 0.23053,0.31108 0.30437,0.48627 0.14769,0.35038 0.23358,0.7528 0.33435,1.13482 0.10077,0.38202 0.21746,0.73996 0.35553,0.95911 0.13808,0.21921 0.22975,0.29132 0.45114,0.28732 0.25369,-0.005 0.36502,-0.0826 0.49196,-0.24236 0.12694,-0.15976 0.23357,-0.41968 0.32401,-0.70693 0.0904,-0.28724 0.16274,-0.59331 0.28939,-0.87333 0.0633,-0.14001 0.14012,-0.27784 0.26923,-0.39843 0.12912,-0.12054 0.32614,-0.21084 0.52555,-0.21084 0.33599,0 0.618532,0.19604 0.784972,0.40256 0.16644,0.20651 0.26929,0.43078 0.37155,0.6289 0.10226,0.19813 0.20142,0.36687 0.29662,0.46457 0.0688,0.0706 0.12095,0.11039 0.20051,0.12713 -0.0375,-0.19287 -0.0625,-0.39394 -0.0625,-0.61082 0,-0.74506 0.21125,-1.33792 0.63459,-1.77818 0.44027,-0.4572 1.01635,-0.68575 1.72756,-0.68575 0.52493,0 0.98202,0.11846 1.37149,0.35553 0.2371,0.1383 0.44228,0.31439 0.61598,0.52762 0.21189,0.26011 0.5965,0.51418 0.93276,0.51418 h 3.98219 c 0.42414,0 0.73027,-0.34302 0.63459,-0.75603 -0.21066,-0.9094 -0.5895,-1.72453 -1.13637,-2.44481 -0.69427,-0.9144 -1.60845,-1.61681 -2.74298,-2.10788 -1.1176,-0.508 -2.37932,-0.76223 -3.78479,-0.76223 z m 16.9416,0 c -1.524,0 -2.88688,0.30508 -4.08915,0.91468 -1.18533,0.59266 -2.11682,1.43084 -2.79415,2.51457 -0.47673,0.78234 -0.77536,1.64682 -0.90795,2.58796 0.0106,0.0237 0.0205,0.0471 0.0315,0.0708 0.13645,0.29304 0.30329,0.58019 0.47232,0.77153 0.16903,0.19133 0.31452,0.26775 0.42789,0.26975 0.18604,0.004 0.24426,-0.0326 0.31626,-0.0956 0.072,-0.063 0.14942,-0.18254 0.24442,-0.34571 0.095,-0.16317 0.20823,-0.37001 0.41187,-0.54881 0.20364,-0.17879 0.5065,-0.30327 0.85782,-0.30127 0.4342,0.002 0.7613,0.30833 0.9431,0.61753 0.1818,0.30921 0.29155,0.6584 0.41238,0.98444 0.12082,0.32603 0.25095,0.62491 0.39842,0.81029 0.14746,0.18538 0.269,0.26768 0.52504,0.26768 0.26016,0 0.40772,-0.0898 0.555,-0.26355 0.039,-0.0461 0.0757,-0.0994 0.11059,-0.15761 -0.0989,-0.28862 -0.15038,-0.60729 -0.15038,-0.95912 0,-0.74506 0.21177,-1.33792 0.6351,-1.77818 0.44027,-0.4572 1.01583,-0.68575 1.72703,-0.68575 0.52493,0 0.98202,0.11846 1.37149,0.35553 0.24431,0.14251 0.455,0.32519 0.632,0.54726 0.20052,0.25158 0.56955,0.49454 0.89194,0.49454 h 3.93774 c 0.46258,0 0.79662,-0.37436 0.68782,-0.82372 -0.21358,-0.88216 -0.58709,-1.67477 -1.12035,-2.37712 -0.69427,-0.9144 -1.60844,-1.61681 -2.74298,-2.10788 -1.1176,-0.508 -2.37932,-0.76223 -3.78479,-0.76223 z m 8.63669,0.35554 a 0.55320806,0.55320806 0 0 0 -0.5085,0.77101 l 1.84072,4.29793 c 0.25528,-0.25087 0.63226,-0.42409 1.07383,-0.42013 0.27507,0.002 0.52846,0.11998 0.71675,0.28474 0.18829,0.16475 0.32557,0.37025 0.44545,0.59583 0.23975,0.45115 0.40961,0.99567 0.58602,1.52342 0.17642,0.52774 0.3613,1.03696 0.5705,1.37717 0.20919,0.3402 0.37836,0.47439 0.6227,0.47439 0.69075,0 0.88358,-0.2795 1.12293,-0.66972 0.11967,-0.19511 0.22514,-0.41626 0.38499,-0.62684 0.15984,-0.21058 0.43411,-0.42708 0.77722,-0.43408 0.31646,-0.006 0.59931,0.16012 0.76016,0.34778 0.16086,0.18766 0.24643,0.38261 0.33383,0.54519 0.0874,0.16258 0.17141,0.28953 0.25941,0.36483 0.088,0.0753 0.17597,0.1233 0.38499,0.12351 0.12682,1.1e-4 0.18876,-0.0476 0.31833,-0.25631 0.12957,-0.2087 0.25667,-0.54709 0.39842,-0.90796 0.14175,-0.36087 0.29893,-0.74633 0.56069,-1.07435 0.26176,-0.32802 0.67246,-0.5917 1.17771,-0.5917 0.49511,0 0.91304,0.22574 1.19941,0.52917 0.0693,0.0734 0.13163,0.1512 0.18913,0.23151 l 2.15388,-5.46013 a 0.74979279,0.74979279 0 0 0 -0.69763,-1.02526 h -4.17443 a 1.1951852,1.1951852 0 0 0 -1.14721,0.85989 l -0.84078,2.87425 -0.81287,2.94607 h -0.076 l -0.94,-2.94607 -0.9834,-3.01119 a 1.047789,1.047789 0 0 0 -0.9958,-0.72295 z m -45.142489,5.04517 c -0.06172,0 -0.115443,0.007 -0.162781,0.0202 -0.04731,0.0136 -0.08928,0.0347 -0.128157,0.0646 -0.0194,0.015 -0.03844,0.0327 -0.05684,0.0522 -0.05549,0.059 -0.107919,0.13925 -0.167949,0.24598 -0.16007,0.2846 -0.292928,0.73077 -0.429948,1.20096 -0.119901,0.41141 -0.24348,0.84184 -0.448034,1.22421 -0.02922,0.0546 -0.06028,0.10825 -0.09302,0.16072 -0.196376,0.3147 -0.499549,0.59134 -0.884701,0.71003 -0.128457,0.0395 -0.265891,0.0615 -0.411861,0.0615 -0.349191,0 -0.65401,-0.10899 -0.90072,-0.27751 h -5.17e-4 c -0.148064,-0.10119 -0.274989,-0.22392 -0.378271,-0.3576 -0.03434,-0.0444 -0.06698,-0.0897 -0.09767,-0.13591 v -5.1e-4 c -0.03068,-0.0462 -0.05986,-0.093 -0.08733,-0.14056 v -5.2e-4 c -0.110031,-0.19051 -0.196112,-0.39073 -0.272335,-0.58911 l -5.16e-4,-5.2e-4 c -0.03814,-0.0993 -0.07353,-0.19808 -0.108521,-0.29507 -0.06992,-0.19381 -0.137264,-0.38037 -0.205672,-0.54622 v -5.2e-4 c -0.0106,-0.0257 -0.02137,-0.0472 -0.03204,-0.0718 -0.05817,-0.13437 -0.117682,-0.25641 -0.180351,-0.34985 -0.03702,-0.0552 -0.07153,-0.10165 -0.105937,-0.14056 v -5.1e-4 c -0.01716,-0.0194 -0.03454,-0.0371 -0.05219,-0.0527 -0.05311,-0.047 -0.110471,-0.0776 -0.181901,-0.0946 h -5.17e-4 c -0.04777,-0.0113 -0.101672,-0.0165 -0.165365,-0.0165 -0.0238,0 -0.03928,0.003 -0.06098,0.004 -0.0225,0.1714 -0.03998,0.34536 -0.05168,0.52245 v 5.1e-4 c -0.01168,0.17693 -0.01757,0.35699 -0.01757,0.54002 0,0.5334 0.04739,1.04277 0.142627,1.52859 v 5.2e-4 c 0.158758,0.80951 0.450081,1.55316 0.873332,2.23035 0.338665,0.5334 0.744918,1.00739 1.219047,1.42214 0.474131,0.41475 1.01614,0.77026 1.62574,1.0666 0.1524,0.0741 0.307387,0.14342 0.465605,0.20826 h 5.17e-4 c 0.632744,0.25923 1.312299,0.44485 2.038118,0.55603 0.544491,0.0834 1.115138,0.12506 1.71204,0.12506 0.201084,0 0.399272,-0.005 0.594279,-0.014 0.390012,-0.0185 0.767574,-0.0555 1.133264,-0.11111 0.365692,-0.0556 0.719572,-0.12956 1.060922,-0.2222 0.34117,-0.0926 0.67069,-0.20423 0.98753,-0.33383 0.15834,-0.0648 0.31386,-0.13425 0.46612,-0.20826 0.6096,-0.29634 1.14911,-0.65185 1.61903,-1.0666 0.46991,-0.41475 0.87024,-0.88874 1.20044,-1.42214 0.34214,-0.54742 0.59364,-1.14054 0.75964,-1.77612 v -5.1e-4 c 0.0332,-0.12699 0.063,-0.25565 0.0894,-0.38603 v -5.1e-4 c 0.0528,-0.26109 0.0921,-0.52868 0.11834,-0.80305 -0.12896,0.35432 -0.2783,0.69578 -0.46198,0.99115 -0.14458,0.23249 -0.31988,0.45117 -0.52865,0.61133 -0.10434,0.08 -0.21767,0.14568 -0.33952,0.1912 -0.0913,0.0341 -0.18822,0.0568 -0.2899,0.0661 -0.034,0.003 -0.0682,0.005 -0.10336,0.005 -0.25794,0 -0.48527,-0.0856 -0.67644,-0.21859 h -5.2e-4 c -0.19124,-0.1331 -0.34613,-0.3138 -0.45992,-0.50436 -0.11379,-0.19057 -0.2038,-0.39733 -0.28215,-0.60927 -0.0784,-0.21194 -0.14503,-0.42905 -0.21187,-0.64079 -0.13369,-0.42347 -0.26806,-0.82586 -0.4222,-1.08003 -0.0384,-0.0633 -0.0738,-0.11622 -0.10852,-0.15968 l -5.2e-4,-5.2e-4 c -0.1044,-0.13065 -0.2029,-0.17725 -0.36328,-0.17725 -0.19819,0 -0.38854,0.062 -0.56638,0.1664 -0.29658,0.17419 -0.56001,0.46702 -0.77566,0.79065 -0.007,0.0111 -0.0135,0.022 -0.0207,0.0331 -0.0495,0.60891 -0.26383,1.12011 -0.66456,1.52084 -0.05706,0.0549 -0.116748,0.10694 -0.177767,0.15503 -0.366632,0.28883 -0.805239,0.45371 -1.314649,0.49506 -0.08494,0.007 -0.171549,0.0103 -0.260449,0.0103 -0.7112,0 -1.295148,-0.22015 -1.752348,-0.66042 -0.17145,-0.17145 -0.310914,-0.36196 -0.418062,-0.57154 -0.178579,-0.34931 -0.267684,-0.75156 -0.267684,-1.20665 0,-0.16353 0.01214,-0.31993 0.03617,-0.46922 0.01201,-0.0747 0.02706,-0.14743 0.04496,-0.21859 0.0358,-0.14232 0.08325,-0.27752 0.14211,-0.40618 0.0588,-0.12852 0.129151,-0.2506 0.210323,-0.36587 v -5.1e-4 c 0.04064,-0.0577 0.0841,-0.11352 0.130225,-0.16795 -0.14253,-0.067 -0.310298,-0.10852 -0.519348,-0.10852 z m 47.540789,0.39584 v 5.2e-4 c -0.25216,-0.002 -0.38817,0.0721 -0.51366,0.1974 -0.036,0.0359 -0.0697,0.0778 -0.10129,0.12454 v 5.2e-4 c -0.0315,0.0466 -0.0612,0.0977 -0.0884,0.15192 l 3.07992,7.19078 c -0.1524,0.37254 -0.36416,0.63515 -0.6351,0.78755 -0.2032,0.127 -0.47767,0.20655 -0.82373,0.23823 -0.11535,0.0106 -0.23877,0.0155 -0.37,0.0155 h -1.13481 a 0.77057813,0.77057813 0 0 0 -0.7705,0.7705 v 3.11092 a 0.79220375,0.79220375 0 0 0 0.7922,0.7922 h 1.64641 c 0.16087,0 0.31811,-0.002 0.47129,-0.006 1.07229,-0.0278 1.95617,-0.15293 2.65255,-0.37518 0.79586,-0.23706 1.45635,-0.65221 1.98128,-1.24488 0.52494,-0.59267 0.99093,-1.43084 1.39733,-2.51458 l 2.84995,-7.22488 c -0.1,-0.25593 -0.2305,-0.49419 -0.38447,-0.65732 -0.17298,-0.18325 -0.35017,-0.28112 -0.62115,-0.28112 -0.26084,0 -0.3948,0.0898 -0.55656,0.29249 -0.16176,0.2027 -0.3072,0.52458 -0.44338,0.87126 -0.13618,0.34669 -0.26326,0.71538 -0.46302,1.03715 -0.19977,0.32178 -0.54129,0.62929 -0.99219,0.6289 -0.3687,-3.8e-4 -0.68482,-0.1282 -0.90227,-0.31419 -0.21745,-0.18598 -0.34232,-0.40802 -0.44132,-0.59221 -0.099,-0.18419 -0.17717,-0.33471 -0.23667,-0.40411 -0.0595,-0.0694 -0.0511,-0.0723 -0.14211,-0.0703 -0.0643,0.001 -0.0747,0.006 -0.16227,0.12092 -0.0876,0.11538 -0.19347,0.32719 -0.33796,0.56275 -0.0361,0.0589 -0.0764,0.11949 -0.12092,0.18036 -0.0445,0.0609 -0.0933,0.12222 -0.14677,0.18241 -0.32102,0.36115 -0.80964,0.68575 -1.53324,0.68575 -0.58343,0 -1.02037,-0.39731 -1.30069,-0.85318 -0.28031,-0.45586 -0.46566,-1.00625 -0.64441,-1.54099 -0.17875,-0.53474 -0.35038,-1.05442 -0.53536,-1.4025 -0.0462,-0.0869 -0.0932,-0.16204 -0.1385,-0.22427 v -5.2e-4 c -0.0454,-0.0623 -0.0893,-0.11139 -0.12919,-0.14624 -0.0797,-0.0697 -0.12702,-0.0892 -0.20102,-0.0899 z m -35.755982,0.42633 c -0.0167,-4.7e-4 -0.0262,3.7e-4 -0.0387,5.2e-4 -0.0336,0.29777 -0.0558,0.60085 -0.0558,0.91415 0,1.38854 0.33023,2.62457 0.99063,3.7083 0.6604,1.08374 1.58298,1.9303 2.76831,2.5399 1.051992,0.51859 2.233692,0.81051 3.545012,0.8754 0.18733,0.009 0.37739,0.014 0.57,0.014 0.35984,0 0.70982,-0.0158 1.04955,-0.0475 0.67927,-0.0636 1.31884,-0.19088 1.91771,-0.38137 0.29935,-0.0952 0.58891,-0.20638 0.86817,-0.33332 1.13454,-0.508 2.04871,-1.23609 2.74298,-2.18436 0.55508,-0.7401 0.94028,-1.57797 1.15497,-2.51406 0.10188,-0.44422 -0.22926,-0.81338 -0.68523,-0.81338 h -3.90467 c -0.36147,0 -0.75076,0.28327 -0.96015,0.5767 -0.16433,0.23029 -0.3673,0.42751 -0.60875,0.5917 -0.10147,0.0677 -0.20841,0.12698 -0.31936,0.17777 -0.33328,0.15248 -0.70899,0.22892 -1.12809,0.22892 -0.71121,0 -1.28729,-0.22015 -1.72756,-0.66042 -0.1091,-0.11783 -0.20276,-0.24553 -0.28371,-0.38137 -0.0589,0.0107 -0.11985,0.0165 -0.18242,0.0165 -0.36066,0 -0.67189,-0.16635 -0.87488,-0.37465 -0.20298,-0.20829 -0.32731,-0.44642 -0.43563,-0.65629 -0.0542,-0.10493 -0.105212,-0.20352 -0.152452,-0.28836 -0.0472,-0.0848 -0.0906,-0.15592 -0.13074,-0.20567 -0.0745,-0.0926 -0.0955,-0.0987 -0.15399,-0.0997 -0.0142,0.0151 -0.048,0.0549 -0.0842,0.13487 -0.0776,0.17159 -0.15591,0.46771 -0.25579,0.78497 -0.0999,0.31725 -0.22136,0.6638 -0.45889,0.96273 -0.23753,0.29892 -0.62458,0.53412 -1.09761,0.54312 -0.063,0.001 -0.12472,-0.002 -0.18448,-0.0103 h -5.2e-4 c -0.41944,-0.0572 -0.75524,-0.33263 -0.95395,-0.64802 -0.22709,-0.36045 -0.34557,-0.78115 -0.45113,-1.18132 -0.10556,-0.40016 -0.19616,-0.78407 -0.29869,-1.02733 -0.0513,-0.12163 -0.10455,-0.20388 -0.13695,-0.23668 -0.0324,-0.0324 -0.0231,-0.0243 -0.0429,-0.0248 z m -22.247734,0.0139 c -0.14834,0 -0.191826,0.0327 -0.293006,0.16175 -0.10117,0.12908 -0.208825,0.3577 -0.328145,0.61547 -0.11933,0.25778 -0.252485,0.54877 -0.486275,0.79891 -0.175245,0.1875 -0.423316,0.34217 -0.717269,0.40773 -0.09806,0.0218 -0.201018,0.0336 -0.308508,0.0336 -0.26165,0 -0.499501,-0.0735 -0.707451,-0.18759 v 5.35988 a 0.46722406,0.46722406 0 0 0 0.288355,0.4315 0.46722406,0.46722406 0 0 0 0.1788,0.0357 h 4.675684 a 0.64872928,0.64872928 0 0 0 0.648539,-0.64854 v -4.3217 c -0.21241,0.13736 -0.458435,0.22324 -0.733805,0.22324 -0.51852,0 -0.937115,-0.27523 -1.185975,-0.61908 -0.24885,-0.34386 -0.379109,-0.74545 -0.491959,-1.11931 -0.08463,-0.28041 -0.160357,-0.54841 -0.237195,-0.755 -0.02561,-0.0689 -0.05125,-0.13117 -0.07751,-0.18448 -0.0525,-0.10657 -0.104872,-0.17272 -0.138492,-0.20102 -0.0336,-0.0282 -0.03878,-0.031 -0.08578,-0.031 z m -19.446359,0.16434 c -0.14881,0 -0.303007,0.0574 -0.437182,0.1478 -0.03343,0.0225 -0.06605,0.0477 -0.09664,0.0739 -0.0919,0.0789 -0.169119,0.17281 -0.221175,0.27131 -0.25451,0.48152 -0.606089,0.87611 -1.054199,1.18339 -0.59267,0.4064 -1.286701,0.60926 -2.082561,0.60926 -0.99907,0 -1.820472,-0.33862 -2.463932,-1.01596 -0.0286,-0.0317 -0.04763,-0.0693 -0.07493,-0.1018 -0.09434,0.095 -0.200557,0.18179 -0.317293,0.25321 -0.03878,0.0237 -0.07931,0.0461 -0.120406,0.0661 -0.164837,0.0803 -0.348043,0.12919 -0.546737,0.12919 -0.242137,0 -0.46079,-0.0532 -0.648022,-0.13952 -0.11234,-0.0518 -0.213479,-0.11551 -0.301274,-0.18656 -0.117055,-0.0947 -0.213104,-0.19779 -0.296623,-0.30075 -0.08352,-0.10297 -0.154505,-0.20585 -0.221175,-0.30076 -0.13333,-0.18982 -0.250079,-0.34562 -0.368969,-0.44132 -0.11889,-0.0957 -0.229593,-0.15038 -0.454753,-0.15038 -0.0829,0 -0.142289,0.0136 -0.197404,0.0507 -0.02746,0.0185 -0.05439,0.043 -0.08217,0.0744 -0.02788,0.0315 -0.05686,0.0703 -0.08992,0.11731 -0.13224,0.18801 -0.26428,0.4963 -0.41031,0.83199 -0.14604,0.33568 -0.30968,0.70026 -0.57981,1.00975 -0.27014,0.3095 -0.680627,0.55163 -1.185457,0.55863 -0.14913,0.002 -0.290967,-0.0209 -0.425297,-0.062 0.11089,0.25362 0.217499,0.50923 0.351399,0.75085 0.198968,0.35137 0.417644,0.68306 0.655774,0.99529 0.05953,0.0781 0.119921,0.15487 0.181901,0.23048 0.681829,0.83185 1.511748,1.51545 2.489771,2.05104 0.6223,0.34078 1.286533,0.60722 1.99316,0.79891 0.100946,0.0274 0.202741,0.0532 0.305408,0.0775 h 5.16e-4 c 0.102506,0.0243 0.205838,0.0469 0.310059,0.0682 h 5.17e-4 c 0.104223,0.0213 0.209288,0.0412 0.315226,0.0594 0.636785,0.1096 1.304297,0.16433 2.002978,0.16433 1.69334,0 3.225536,-0.32186 4.597136,-0.96532 1.3716,-0.6604 2.489167,-1.58348 3.352767,-2.76882 0.7487,-1.00786 1.252535,-2.15635 1.511535,-3.44578 0.04781,-0.2381 -0.04293,-0.44945 -0.21239,-0.57464 -0.03389,-0.025 -0.07085,-0.0469 -0.110587,-0.0646 -0.07947,-0.0353 -0.169488,-0.0548 -0.266651,-0.0548 z m 9.608199,0.13229 c -0.15397,0 -0.191375,0.0354 -0.293005,0.19741 -0.10162,0.16196 -0.196603,0.44336 -0.296623,0.75189 -0.10002,0.30854 -0.206488,0.64409 -0.412378,0.9431 -0.20589,0.29901 -0.570778,0.555 -1.017508,0.555 v 4.2168 a 0.69624062,0.69624062 0 0 0 0.696598,0.69608 H 66.7951 a 0.56751844,0.56751844 0 0 0 0.567407,-0.56741 v -4.39146 c -0.3167,0.30477 -0.726538,0.52658 -1.209228,0.52658 -0.54364,0 -0.983363,-0.26056 -1.267623,-0.59996 -0.28426,-0.3394 -0.450422,-0.74474 -0.593762,-1.12086 -0.14334,-0.37613 -0.265701,-0.72973 -0.392741,-0.94723 -0.12705,-0.21746 -0.181659,-0.25994 -0.308509,-0.25994 z m 51.773606,0.0997 c -0.1907,-10e-4 -0.25501,0.0373 -0.33021,0.10335 -0.0752,0.066 -0.15325,0.18705 -0.24805,0.34985 -0.0948,0.1628 -0.20683,0.36706 -0.40979,0.54467 -0.20295,0.17761 -0.50544,0.29794 -0.8537,0.29094 -0.40815,-0.009 -0.73452,-0.23911 -0.98237,-0.5116 0.0415,1.27587 0.35817,2.42471 0.9741,3.43545 0.6604,1.08374 1.5835,1.9303 2.76883,2.5399 0.30056,0.14817 0.61157,0.27796 0.93327,0.38912 0.96512,0.33348 2.02551,0.50023 3.1812,0.50023 1.43933,0 2.71783,-0.25423 3.83543,-0.76223 1.13453,-0.508 2.04923,-1.23609 2.7435,-2.18436 0.26885,-0.35847 0.49784,-0.73966 0.68678,-1.14412 0.0945,-0.20222 0.1787,-0.41053 0.25322,-0.62425 0.0745,-0.21372 0.13921,-0.43314 0.19378,-0.65835 0.007,-0.0307 0.0128,-0.061 0.0165,-0.091 0.007,-0.06 0.008,-0.11853 0.002,-0.17466 -0.0415,-0.36484 -0.36119,-0.6351 -0.77205,-0.6351 h -3.88452 c -0.32302,0 -0.67162,0.2516 -0.85111,0.51934 -0.17096,0.25501 -0.38679,0.47142 -0.64802,0.64906 -0.4064,0.27093 -0.88917,0.40669 -1.44797,0.40669 -0.7112,0 -1.28676,-0.22015 -1.72703,-0.66042 -0.0218,-0.0236 -0.0367,-0.0517 -0.0574,-0.076 -0.13135,0.13634 -0.29291,0.2544 -0.47697,0.33797 -0.18424,0.0836 -0.39144,0.13281 -0.61599,0.13281 -0.4923,0 -0.89483,-0.2504 -1.14618,-0.56638 -0.0627,-0.0789 -0.11882,-0.16111 -0.1695,-0.24546 v -5.2e-4 c -0.1522,-0.25343 -0.25661,-0.52569 -0.35192,-0.7829 -0.12709,-0.34295 -0.23806,-0.66416 -0.35191,-0.85782 -0.0285,-0.0484 -0.0523,-0.0867 -0.0739,-0.11679 -0.0216,-0.0301 -0.0414,-0.0518 -0.0605,-0.0677 -0.0382,-0.0318 -0.0753,-0.0395 -0.12919,-0.0398 z" />
    <path
       id="path121"
       style="font-weight:860;font-size:25.4px;line-height:0.4;font-family:Garet;-inkscape-font-specification:'Garet weight=860';text-align:center;text-anchor:middle;fill:#ffffff;fill-opacity:1;stroke-width:1.05833"
       d="m 31.56469,123.51652 a 0.39687499,0.39687499 0 0 0 -0.204638,0.0114 v -5.2e-4 a 0.39687499,0.39687499 0 0 0 -0.251665,0.5023 c 1.23748,3.72218 1.639514,6.99662 1.198894,9.78907 -0.44061,2.79245 -1.711121,5.10883 -3.8809,6.9727 a 0.39687499,0.39687499 0 0 0 -0.04289,0.56017 0.39687499,0.39687499 0 0 0 0.560689,0.0434 c 2.301669,-1.97718 3.681544,-4.49131 4.148584,-7.45123 0.46704,-2.95992 0.03264,-6.35898 -1.232482,-10.16423 a 0.39687499,0.39687499 0 0 0 -0.29559,-0.26304 z m -4.951119,13.21935 c -4.39044,0.003 -7.960262,3.35373 -8.004162,7.51324 0.14668,0.13106 0.300967,0.19617 0.478007,0.2005 0.39362,0.01 0.603552,-0.0581 0.734322,-0.13487 0.13077,-0.0768 0.204352,-0.17271 0.295072,-0.31213 0.0907,-0.13942 0.181959,-0.33635 0.413929,-0.49609 0.23197,-0.1597 0.567753,-0.19015 0.917773,-0.094 0.29294,0.0805 0.477765,0.30355 0.609265,0.53743 0.1315,0.23387 0.225872,0.50579 0.312642,0.81235 0.17355,0.6131 0.308904,1.36395 0.478524,2.10168 0.16963,0.73774 0.375077,1.45972 0.652157,1.98025 0.27708,0.52052 0.580854,0.80577 0.994254,0.85937 0.47259,0.0612 0.704389,-0.0569 0.929659,-0.28887 0.22527,-0.23202 0.410043,-0.61732 0.576193,-1.04696 0.16614,-0.42963 0.312993,-0.89362 0.548803,-1.29295 0.23581,-0.39934 0.642078,-0.76671 1.185458,-0.76171 0.468,0.004 0.84692,0.18059 1.09399,0.42788 0.24706,0.2473 0.375535,0.53085 0.496094,0.76947 0.12056,0.23862 0.229375,0.43116 0.363285,0.55087 0.1339,0.11968 0.293168,0.20102 0.642338,0.20102 0.29546,0 0.512989,-0.12967 0.752409,-0.39068 0.23943,-0.26102 0.463762,-0.64789 0.683162,-1.05678 0.2194,-0.40888 0.432526,-0.83744 0.703316,-1.19321 0.27079,-0.35575 0.647726,-0.67386 1.142566,-0.67386 0.36845,0 0.691145,0.13048 0.939995,0.3204 0.0443,-0.31267 0.0679,-0.62763 0.0708,-0.9431 -10e-6,-1.95334 -0.79474,-3.82411 -2.20555,-5.22965 -0.21796,-0.21715 -0.52921,-0.16021 -0.69143,0.10128 -0.65576,1.05709 -1.47366,2.01674 -2.445329,2.86959 0.230289,0.0816 0.480038,0.14344 0.750858,0.18604 a 0.39687499,0.39687499 0 0 1 0.330213,0.45527 0.39687499,0.39687499 0 0 1 -0.453203,0.32969 c -1.640879,-0.25813 -2.806989,-1.26983 -3.328479,-2.88044 a 0.39687499,0.39687499 0 0 1 0.256316,-0.50023 0.39687499,0.39687499 0 0 1 0.499711,0.2558 c 0.0907,0.28022 0.198034,0.53301 0.321944,0.76068 0.94809,-0.78681 1.71601,-1.66434 2.31407,-2.64429 0.15508,-0.25409 0.0512,-0.57432 -0.224792,-0.68574 -0.989309,-0.39936 -2.055106,-0.60651 -3.134176,-0.6072 z m -5.578987,7.40415 c -0.0334,8.9e-4 -0.04181,0.0111 -0.05271,0.0186 -0.0217,0.015 -0.0898,0.10901 -0.199471,0.27751 -0.10964,0.16851 -0.276703,0.39669 -0.558623,0.56224 -0.28192,0.1655 -0.658901,0.25879 -1.156001,0.24649 -0.14115,-0.004 -0.273996,-0.0292 -0.399976,-0.0698 0.45627,3.83294 3.874578,6.73194 7.945768,6.73861 3.642509,-0.006 6.822116,-2.33968 7.738546,-5.67976 -0.0667,-0.11153 -0.141619,-0.21235 -0.223759,-0.28836 -0.14221,-0.13163 -0.288471,-0.20308 -0.515731,-0.20308 -0.16028,0 -0.309486,0.0957 -0.511596,0.36121 -0.2021,0.26552 -0.410024,0.66676 -0.635104,1.08624 -0.22509,0.41948 -0.467961,0.85828 -0.798401,1.21853 -0.33045,0.36025 -0.782752,0.64647 -1.336352,0.64647 -0.49987,1e-5 -0.899256,-0.16069 -1.171505,-0.4041 -0.27225,-0.24341 -0.418479,-0.53672 -0.543119,-0.78342 -0.12464,-0.24669 -0.230183,-0.44711 -0.349333,-0.56637 -0.11916,-0.11926 -0.238312,-0.19027 -0.539502,-0.19327 -0.22581,-0.002 -0.328146,0.0886 -0.494026,0.36948 -0.16588,0.28092 -0.31563,0.71967 -0.49196,1.17564 -0.17633,0.45598 -0.379948,0.9369 -0.746208,1.31413 -0.36625,0.37724 -0.927249,0.61109 -1.603519,0.52349 -0.73544,-0.0953 -1.250985,-0.63336 -1.591635,-1.27331 -0.34065,-0.63994 -0.54997,-1.41423 -0.72502,-2.17558 -0.17506,-0.76135 -0.312565,-1.51132 -0.468705,-2.06292 -0.0781,-0.2758 -0.163866,-0.50158 -0.241846,-0.64027 -0.078,-0.13866 -0.133724,-0.1622 -0.127124,-0.1602 -0.11136,-0.0306 -0.169678,-0.0391 -0.203088,-0.0382 z" />
  </g>
</svg>
