<?xml version="1.0" encoding="UTF-8" standalone="no"?>
<svg
   width="36"
   height="36"
   viewBox="0 0 36 36"
   fill="none"
   version="1.1"
   id="svg1"
   sodipodi:docname="cog.svg"
   inkscape:version="1.4 (1:1.4+202410161351+e7c3feb100)"
   xmlns:inkscape="http://www.inkscape.org/namespaces/inkscape"
   xmlns:sodipodi="http://sodipodi.sourceforge.net/DTD/sodipodi-0.dtd"
   xmlns="http://www.w3.org/2000/svg"
   xmlns:svg="http://www.w3.org/2000/svg">
  <sodipodi:namedview
     id="namedview1"
     pagecolor="#505050"
     bordercolor="#eeeeee"
     borderopacity="1"
     inkscape:showpageshadow="0"
     inkscape:pageopacity="0"
     inkscape:pagecheckerboard="0"
     inkscape:deskcolor="#505050"
     inkscape:zoom="31.972222"
     inkscape:cx="17.984361"
     inkscape:cy="18"
     inkscape:window-width="3440"
     inkscape:window-height="1353"
     inkscape:window-x="0"
     inkscape:window-y="0"
     inkscape:window-maximized="1"
     inkscape:current-layer="svg1" />
  <path
     d="m 34.9213,21.945 -3.309,-2.5875 c 0.042,-0.399 0.078,-0.8655 0.078,-1.359 0,-0.4935 -0.0345,-0.96 -0.078,-1.359 l 3.312,-2.589 c 0.6151,-0.486 0.783,-1.3485 0.3915,-2.0669 L 31.8748,6.03 C 31.5073,5.35802 30.7018,5.013 29.8843,5.3145 L 25.9798,6.88198 C 25.2313,6.34198 24.4468,5.886 23.6353,5.5215 L 23.0413,1.38002 C 22.9438,0.594 22.2598,0 21.4513,0 h -6.8999 c -0.8086,0 -1.491,0.594 -1.5871,1.368 L 12.3689,5.52452 C 11.5828,5.87855 10.8104,6.32855 10.0289,6.885 L 6.11387,5.31302 C 5.3803,5.02952 4.5028,5.34748 4.1383,6.0165 l -3.445455,5.961 c -0.406476,0.687 -0.2385,1.5795 0.390025,2.0775 l 3.30898,2.5875 c -0.05253,0.5055 -0.07798,0.945 -0.07798,1.3576 0,0.4125 0.02552,0.8519 0.07798,1.359 l -3.312,2.5889 c -0.615028,0.4875 -0.781528,1.35 -0.390028,2.067 l 3.441028,5.9535 c 0.36752,0.6705 1.16549,1.0185 1.99047,0.7155 l 3.90448,-1.5675 c 0.747,0.5386 1.5315,0.9945 2.3431,1.3605 l 0.594,4.14 C 13.0603,35.406 13.7428,36 14.5528,36 h 6.9 c 0.8085,0 1.4925,-0.594 1.5885,-1.368 l 0.5955,-4.155 c 0.786,-0.3555 1.557,-0.804 2.34,-1.362 l 3.915,1.572 c 0.189,0.0735 0.3855,0.111 0.588,0.111 0.582,0 1.1175,-0.318 1.3875,-0.813 L 35.3233,24 c 0.384,-0.702 0.216,-1.5645 -0.402,-2.055 z M 18.0013,24 c -3.309,0 -6,-2.691 -6,-6 0,-3.309 2.691,-6 6,-6 3.309,0 6,2.691 6,6 0,3.309 -2.691,6 -6,6 z"
     fill="#ff02d1"
     id="path1"
     style="fill:#c54b8c;fill-opacity:1" />
  <defs
     id="defs1" />
</svg>
