<?xml version="1.0" encoding="UTF-8" standalone="no"?>
<svg
   width="54"
   height="54"
   viewBox="0 0 54 54"
   fill="none"
   version="1.1"
   id="svg6"
   sodipodi:docname="switch.svg"
   inkscape:version="1.4 (1:1.4+202410161351+e7c3feb100)"
   xmlns:inkscape="http://www.inkscape.org/namespaces/inkscape"
   xmlns:sodipodi="http://sodipodi.sourceforge.net/DTD/sodipodi-0.dtd"
   xmlns="http://www.w3.org/2000/svg"
   xmlns:svg="http://www.w3.org/2000/svg">
  <sodipodi:namedview
     id="namedview6"
     pagecolor="#505050"
     bordercolor="#eeeeee"
     borderopacity="1"
     inkscape:showpageshadow="0"
     inkscape:pageopacity="0"
     inkscape:pagecheckerboard="0"
     inkscape:deskcolor="#505050"
     inkscape:zoom="10.657407"
     inkscape:cx="-13.230235"
     inkscape:cy="15.998263"
     inkscape:window-width="3440"
     inkscape:window-height="1353"
     inkscape:window-x="0"
     inkscape:window-y="0"
     inkscape:window-maximized="1"
     inkscape:current-layer="svg6" />
  <circle
     cx="27"
     cy="27"
     r="27"
     fill="black"
     id="circle1"
     style="fill:#1a1a1a;fill-opacity:1" />
  <path
     d="m 34.4893,11.1752 -7.925,10.0645 c -0.2367,0.3012 -0.0217,0.7433 0.3609,0.7433 h 5.2698 v 11.4551 c 0,2.7625 -0.766,5.5947 -2.5826,7.6865 -0.2846,0.3276 0.0053,0.8326 0.4317,0.7523 0.7552,-0.1422 1.8927,-0.4319 3.0221,-1.005 2.8984,-1.4705 4.3679,-3.9717 4.3679,-7.4338 V 22.0718 h 5.0311 c 0.1739,0 0.3329,-0.0982 0.4107,-0.2538 0.0767,-0.1527 0.0627,-0.3397 -0.0433,-0.4808 L 35.2175,11.1837 c -0.0855,-0.1141 -0.2193,-0.182 -0.362,-0.1836 -0.1427,-0.0017 -0.2779,0.063 -0.3662,0.1751 z"
     fill="#ff9ced"
     id="path1"
     clip-path="url(#clipPath11)" />
  <path
     d="m 34.4892,11.1752 -1.0333,1.3125 c 7.1722,9.563 6.729,8.9059 6.729,9.125 0,0.2519 -0.2042,0.4591 -0.4593,0.4591 h 2.7395 c 0.174,0 0.333,-0.0982 0.4107,-0.2538 0.0767,-0.1527 0.0627,-0.3397 -0.0433,-0.4808 L 35.2173,11.1837 c -0.0855,-0.1141 -0.2192,-0.182 -0.3619,-0.1836 -0.1426,-0.0017 -0.2778,0.063 -0.3662,0.1751 z"
     fill="#ff9ced"
     id="path2"
     clip-path="url(#clipPath10)" />
  <path
     d="m 23.9565,12.1233 c -4.4744,0.842 -7.3899,3.6527 -7.3899,8.4388 v 11.3663 h -5.0311 c -0.378,0 -0.594,0.4328 -0.3674,0.7347 l 7.615,10.1534 c 0.1807,0.2408 0.5416,0.2456 0.7282,0.0086 8.5366,-10.8415 8.0233,-10.1208 8.0233,-10.3488 0,-0.2515 -0.2039,-0.4591 -0.4593,-0.4591 H 21.8055 V 20.5621 c 0,-2.7689 0.7698,-5.5999 2.5826,-7.6865 0.285,-0.3284 -0.0059,-0.8328 -0.4316,-0.7523 z"
     fill="#ff02d1"
     id="path3"
     clip-path="url(#clipPath9)"
     style="fill:#c54b8c;fill-opacity:1" />
  <path
     d="m 24.9929,32.4763 c 0,0.2275 0.4735,-0.4422 -7.0912,9.1648 l 0.8814,1.1754 c 0.1806,0.2408 0.5416,0.2456 0.7281,0.0086 l 7.925,-10.0646 c 0.2362,-0.3002 0.0223,-0.7432 -0.3609,-0.7432 h -2.5418 c 0.2553,0 0.4594,0.2074 0.4594,0.459 z"
     fill="#ff02d1"
     id="path4"
     clip-path="url(#clipPath8)"
     style="fill:#c54b8c;fill-opacity:1" />
  <path
     d="m 23.9565,12.1233 c -0.5281,0.0995 -1.2431,0.2714 -2.0113,0.5613 -0.0756,0.3063 -2.6813,2.6143 -2.6813,7.8776 v 8.6451 c 0.0267,0.1185 0.0415,0.2963 0.0415,0.5463 0,1.6688 0.9172,2.1464 1.6406,2.2636 h 0.8596 V 20.5621 c 0,-2.7689 0.7698,-5.5999 2.5826,-7.6865 0.2849,-0.3284 -0.006,-0.8328 -0.4317,-0.7523 z"
     fill="#ff02d1"
     id="path5"
     clip-path="url(#clipPath7)"
     style="fill:#c54b8c;fill-opacity:1" />
  <path
     d="m 34.6946,24.5711 v 8.8669 c 0,3.8379 -1.8216,6.4421 -5.1472,7.7869 -0.1662,0.3411 0.128,0.7215 0.4967,0.652 4.4751,-0.8427 7.3899,-3.6527 7.3899,-8.4388 V 22.0718 h -0.6512 c -0.8102,0.0835 -2.0882,0.5278 -2.0882,2.4993 z"
     fill="#ff9ced"
     id="path6"
     clip-path="url(#clipPath6)" />
  <defs
     id="defs6">
    <clipPath
       clipPathUnits="userSpaceOnUse"
       id="clipPath6">
      <rect
         width="32"
         height="32"
         fill="#ffffff"
         transform="rotate(-90)"
         id="rect7"
         x="-43"
         y="11" />
    </clipPath>
    <clipPath
       clipPathUnits="userSpaceOnUse"
       id="clipPath7">
      <rect
         width="32"
         height="32"
         fill="#ffffff"
         transform="rotate(-90)"
         id="rect8"
         x="-43"
         y="11" />
    </clipPath>
    <clipPath
       clipPathUnits="userSpaceOnUse"
       id="clipPath8">
      <rect
         width="32"
         height="32"
         fill="#ffffff"
         transform="rotate(-90)"
         id="rect9"
         x="-43"
         y="11" />
    </clipPath>
    <clipPath
       clipPathUnits="userSpaceOnUse"
       id="clipPath9">
      <rect
         width="32"
         height="32"
         fill="#ffffff"
         transform="rotate(-90)"
         id="rect10"
         x="-43"
         y="11" />
    </clipPath>
    <clipPath
       clipPathUnits="userSpaceOnUse"
       id="clipPath10">
      <rect
         width="32"
         height="32"
         fill="#ffffff"
         transform="rotate(-90)"
         id="rect11"
         x="-43"
         y="11" />
    </clipPath>
    <clipPath
       clipPathUnits="userSpaceOnUse"
       id="clipPath11">
      <rect
         width="32"
         height="32"
         fill="#ffffff"
         transform="rotate(-90)"
         id="rect12"
         x="-43"
         y="11" />
    </clipPath>
  </defs>
</svg>
